<svg fill="none" height="181" viewBox="0 0 182 181" width="182" xmlns="http://www.w3.org/2000/svg" xmlns:xlink="http://www.w3.org/1999/xlink"><mask id="a" height="10" maskUnits="userSpaceOnUse" width="12" x="170" y="90"><path clip-rule="evenodd" d="m170.716 90.7617h10.768v8.698h-10.768z" fill="#fff" fill-rule="evenodd"/></mask><mask id="b" height="12" maskUnits="userSpaceOnUse" width="10" x="73" y="0"><path clip-rule="evenodd" d="m73.418 0h9.2683v11.5893h-9.2683z" fill="#fff" fill-rule="evenodd"/></mask><path clip-rule="evenodd" d="m114.896 5.24867c.408-.868 1.089-1.396 2.042-1.584.617-.135 1.36-.059 2.228.227.877.289 1.524.67 1.941 1.146.351.393.583.84.694 1.342.112.502.083 1.008-.085 1.515-.17.517-.442.939-.816 1.266-.174.158-.385.299-.63.423.223.35.367.75003.434 1.20103.084.489.038 1.001-.138 1.537-.177.535-.46.992-.851 1.37-.39.378-.854.637-1.392.778-.749.193-1.609.13-2.578-.19-.961-.316-1.685-.774-2.173-1.375-.62-.758-.833-1.635-.637-2.635l2.076.315c-.127.449-.07.836.171 1.161.256.371.637.63 1.142.775.551.162 1.01.18 1.379.055.421-.127.71-.431.868-.911.161-.489.107-.901-.161-1.235-.244-.347-.624-.60603-1.142-.77603l-.623-.205.593-1.801.623.205c.468.134.849.158 1.144.07.357-.087.595-.316.717-.685.118-.36.061-.681-.174-.963-.207-.273-.527-.481-.962-.624-.433-.143-.815-.166-1.143-.07-.326.088-.556.304-.69.648z" fill="#ac7644" fill-rule="evenodd"/><path clip-rule="evenodd" d="m126.844 14.7273 2.814 1.414.886-5.3zm2.207 5.026.277-1.688-3.831-1.926-1.175 1.236-1.825-.916 7.582-7.94099 2.645 1.33-1.849 10.82199z" fill="#ac7644" fill-rule="evenodd"/><path clip-rule="evenodd" d="m139.531 20.8005-1.189-.844-2.719 3.829-1.641-1.165 6.078-8.562 1.642 1.165-2.474 3.484 1.19.845 4.613-1.965 1.95 1.385-5.576 2.211-.265 6.519-1.962-1.393z" fill="#ac7644" fill-rule="evenodd"/><path clip-rule="evenodd" d="m152.381 29.9012c.377-.067.677-.224.9-.468.284-.32.434-.656.449-1.007.026-.502-.114-.902-.42-1.2l-2.011-1.949-2.233 2.303 2.009 1.949c.342.332.778.456 1.306.372m2.345.934c-.494.537-1.139.867-1.935.989-.52.09-1.049.052-1.584-.115-.536-.167-1.006-.448-1.41-.84l-2.02-1.96-2.489 2.565-1.423-1.381 7.31-7.537 3.444 3.34c.258.251.476.536.653.857.368.681.496 1.388.382 2.119-.098.744-.408 1.398-.928 1.963" fill="#ac7644" fill-rule="evenodd"/><path clip-rule="evenodd" d="m166.577 40.3972 1.16 1.608-8.515 6.143-1.161-1.608zm-7.646 1.416c.274-.186.471-.46.593-.823.159-.511.099-.959-.179-1.346l-1.638-2.27-2.603 1.877 1.639 2.27c.25.347.625.544 1.126.59.35.036.703-.064 1.062-.298zm1.924-3.24c.33.457.539.963.627 1.516.088.554.049 1.082-.116 1.585-.235.77-.655 1.36-1.258 1.771-.635.433-1.327.645-2.077.635-.739.005-1.419-.223-2.041-.686-.291-.221-.542-.477-.753-.769l-2.806-3.891 8.515-6.143 1.16 1.609-2.897 2.09z" fill="#ac7644" fill-rule="evenodd"/><path clip-rule="evenodd" d="m174.148 54.4099-1.783.869-1.45-2.975-7.656 3.732-.869-1.783 7.655-3.732-1.45-2.975 1.782-.869z" fill="#ac7644" fill-rule="evenodd"/><path clip-rule="evenodd" d="m169.908 63.1042.964 2.999 4.4-3.083zm-2.039 5.098 1.399-.987-1.311-4.082-1.707.029-.624-1.945 10.977-.157.907 2.819-9.016 6.266z" fill="#ac7644" fill-rule="evenodd"/><path clip-rule="evenodd" d="m175.488 78.1862 3.168-.509-.444-2.764c-.069-.423-.316-.767-.743-1.034-.296-.188-.657-.258-1.083-.21-.328.043-.627.201-.899.47-.371.385-.519.813-.443 1.283zm5.326 1.152-10.367 1.668-.314-1.958 3.527-.567-.373-2.318-3.803-1.147-.357-2.217 4.208 1.273c.151-.527.423-.984.813-1.371.557-.582 1.196-.921 1.919-1.018.761-.103 1.475.019 2.142.364.663.327 1.168.836 1.515 1.529.161.329.271.671.328 1.026z" fill="#ac7644" fill-rule="evenodd"/><g mask="url(#a)"><path clip-rule="evenodd" d="m181.023 99.4597-1.98-.106.177-3.306-8.504-.458.107-1.981 8.504.458.177-3.305 1.981.106z" fill="#ac7644" fill-rule="evenodd"/></g><g clip-rule="evenodd" fill-rule="evenodd"><path d="m177.018 111.041.946-4.777-2.231-.443-.777 3.92-1.945-.386.777-3.919-2.233-.442-.946 4.777-1.945-.384 1.332-6.724 10.299 2.04-1.332 6.724z" fill="#ac7644"/><path d="m171.183 121.369c.218.315.483.524.799.626.409.126.776.123 1.102-.008.468-.184.775-.477.918-.88l.943-2.636-3.022-1.081-.942 2.637c-.16.448-.093.896.202 1.342m.121 2.521c-.693-.227-1.26-.677-1.701-1.351-.298-.437-.482-.934-.551-1.49-.069-.557-.01-1.101.181-1.631l.947-2.651-3.365-1.203.668-1.867 9.887 3.534-1.615 4.518c-.121.339-.291.655-.51.948-.467.617-1.057 1.026-1.769 1.227-.718.217-1.442.207-2.172-.034" fill="#ac7644"/><path d="m165.514 133.219c.167.345.397.592.693.74.385.187.749.24 1.091.16.49-.11.838-.353 1.042-.729l1.334-2.462-2.821-1.528-1.334 2.462c-.227.419-.229.871-.005 1.357m-.266 2.51c-.65-.33-1.141-.862-1.474-1.595-.228-.478-.334-.996-.318-1.557s.159-1.088.427-1.585l1.341-2.474-3.142-1.702.946-1.744 9.232 5.001-2.286 4.219c-.171.317-.388.603-.647.86-.558.539-1.204.852-1.937.941-.743.106-1.457-.016-2.142-.364" fill="#ac7644"/><path d="m161.082 147.454-1.067 1.387-8.324-6.402 1.237-1.606 5.432 4.179-2.499-7.995 1.068-1.386 8.323 6.401-1.228 1.595-5.432-4.178z" fill="#ac7644"/><path d="m150.219 158.758-1.37-1.435 2.394-2.286-5.881-6.159 1.434-1.37 5.882 6.16 2.395-2.286 1.369 1.434z" fill="#ac7644"/><path d="m137.285 157.486c-.381.253-.685.569-.911.951s-.351.787-.372 1.217c-.029.777.263 1.609.879 2.496.62.895 1.297 1.461 2.029 1.698.409.13.833.157 1.27.078.436-.078.839-.251 1.209-.519.382-.253.688-.57.917-.955.231-.385.353-.789.368-1.212.043-.74-.246-1.575-.868-2.505-.647-.899-1.328-1.463-2.041-1.69-.402-.136-.823-.163-1.263-.082-.442.081-.847.255-1.217.523m-1.063-1.533c.631-.439 1.311-.729 2.039-.873s1.434-.115 2.118.085c1.23.342 2.277 1.135 3.141 2.382.869 1.254 1.248 2.518 1.137 3.79-.046.718-.265 1.387-.657 2.008-.392.62-.907 1.153-1.547 1.596-1.35.937-2.732 1.203-4.147.8-1.191-.335-2.241-1.133-3.151-2.395-.851-1.279-1.227-2.538-1.129-3.778.063-.729.288-1.406.677-2.03.39-.625.895-1.154 1.519-1.585" fill="#ac7644"/><path d="m125.727 169.068c-.068.377-.026.713.124 1.007.202.378.464.635.788.771.461.201.885.209 1.272.025l2.527-1.203-1.379-2.898-2.528 1.204c-.43.205-.699.57-.804 1.094m-1.692 1.872c-.331-.649-.416-1.369-.253-2.157.097-.521.317-1.002.661-1.445.343-.444.769-.787 1.278-1.03l2.541-1.21-1.536-3.225 1.79-.853 4.516 9.48-4.332 2.063c-.325.154-.668.259-1.031.313-.767.107-1.473-.02-2.119-.38-.663-.353-1.168-.87-1.515-1.556" fill="#ac7644"/><path d="m113.745 177.956-1.68.49-2.943-10.079 1.946-.568 1.921 6.58 2.698-7.929 1.68-.49 2.943 10.079-1.931.563-1.922-6.579z" fill="#ac7644"/><path d="m99.8344 175.33.3996 3.184 2.778-.349c.425-.053.777-.288 1.058-.706.199-.289.282-.648.247-1.074-.031-.329-.177-.635-.438-.915-.371-.385-.794-.547-1.267-.489zm-1.335 5.283-1.309-10.419 1.969-.247.445 3.546 2.3296-.293 1.276-3.761 2.228-.28-1.417 4.161c.521.17.968.457 1.342.861.563.576.88 1.227.951 1.953.077.764-.07 1.473-.438 2.128-.35.651-.876 1.138-1.58 1.462-.334.149-.68.247-1.037.292z" fill="#ac7644"/><path d="m68.2872 175.654c-.392.877-1.062 1.419-2.01 1.626-.615.146-1.359.086-2.232-.183-.883-.271-1.537-.64-1.964-1.106-.359-.386-.601-.828-.721-1.328-.121-.5-.103-1.006.054-1.517.16-.52.424-.948.791-1.282.171-.161.378-.306.621-.435-.229-.345-.382-.743-.457-1.193-.095-.486-.059-1 .106-1.539.166-.539.441-1.001.824-1.387.383-.385.842-.654 1.376-.805.745-.208 1.606-.163 2.582.137.967.297 1.699.741 2.199 1.331.636.745.866 1.619.689 2.623l-2.082-.273c.119-.452.054-.838-.193-1.158-.264-.366-.649-.617-1.157-.752-.554-.151-1.014-.159-1.38-.028-.418.136-.701.446-.85.929-.151.492-.09.903.186 1.232.251.341.637.592 1.157.753l.627.192-.557 1.812-.627-.193c-.47-.124-.851-.14-1.145-.047-.355.095-.589.328-.703.7-.112.363-.046.682.193.959.213.269.537.471.975.605.436.134.818.149 1.144.047.325-.094.55-.315.677-.662z" fill="#ac7644"/><path d="m56.1872 166.435-2.843-1.357-.776 5.318zm-2.31-4.98-.242 1.693 3.869 1.847 1.152-1.261 1.843.88-7.418 8.094-2.672-1.275 1.627-10.857z" fill="#ac7644"/><path d="m43.3407 160.597 1.205.82 2.643-3.883 1.663 1.133-5.907 8.681-1.665-1.133 2.405-3.532-1.205-.82-4.575 2.055-1.977-1.345 5.531-2.322.135-6.523 1.989 1.353z" fill="#ac7644"/><path d="m30.3308 151.77c-.375.075-.672.237-.891.486-.277.326-.42.664-.427 1.016-.017.503.131.9.444 1.191l2.049 1.91 2.186-2.348-2.049-1.909c-.347-.325-.785-.44-1.312-.346m-2.363-.886c.483-.547 1.121-.889 1.914-1.027.519-.102 1.049-.073 1.587.083.539.156 1.014.427 1.426.811l2.06 1.918 2.436-2.614 1.451 1.353-7.157 7.682-3.511-3.27c-.263-.245-.487-.527-.67-.844-.381-.674-.523-1.378-.425-2.11.083-.746.38-1.407.889-1.982" fill="#ac7644"/><path d="m23.5463 139.997c-.27.19-.462.469-.576.835-.15.514-.08.961.206 1.341l1.683 2.237 2.564-1.929-1.684-2.237c-.256-.342-.636-.531-1.138-.567-.35-.029-.701.078-1.055.32zm-1.858 3.278c-.339-.451-.559-.952-.658-1.504s-.071-1.081.083-1.587c.221-.774.628-1.373 1.223-1.795.625-.447 1.314-.672 2.064-.677.739-.021 1.423.194 2.054.643.296.216.552.467.769.755l2.885 3.833-8.391 6.314-1.192-1.584 2.855-2.149zm-5.758-1.709-1.193-1.585 8.39-6.313 1.192 1.585z" fill="#ac7644"/><path d="m8.06836 127.694 1.766-.905 1.50904 2.946 7.579-3.886.905 1.766-7.578 3.885 1.509 2.946-1.764.904z" fill="#ac7644"/><path d="m12.1277 118.906-1.023-2.979-4.339 3.171zm1.936-5.137-1.379 1.013 1.393 4.055 1.705-.062.664 1.931-10.972.378-.962-2.8 8.887-6.446z" fill="#ac7644"/><path d="m6.25232 103.973-3.157.574.501 2.755c.077.421.331.761.763 1.018.3.182.663.245 1.086.187.328-.049.624-.212.89-.487.364-.393.503-.823.418-1.292zm-5.349-1.043 10.33098-1.879.355 1.951-3.51498.64.42 2.31 3.82498 1.068.403 2.21-4.23298-1.187c-.141.53-.403.992-.785 1.388-.545.593-1.178.945-1.898 1.057-.759.118-1.475.011-2.149-.322-.669-.312-1.184-.811-1.547-1.497-.168-.325-.284-.665-.348-1.018z" fill="#ac7644"/><path d="m.293 82.7849 1.982.068-.113 3.308 8.512.29-.068 1.982-8.511-.29-.113 3.309-1.982-.067z" fill="#ac7644"/><path d="m4.06009 71.1522-.849 4.797 2.241.396.696-3.934 1.953.345-.697 3.935 2.24.397.85001-4.797 1.952.345-1.195 6.75-10.338014-1.83 1.194004-6.75z" fill="#ac7644"/><path d="m9.69187 60.6745c-.224-.311-.494-.514-.811-.609-.411-.118-.779-.108-1.101.03-.465.193-.766.493-.901.898l-.889 2.656 3.042 1.018.889-2.655c.15103-.451.076-.898-.229-1.338m-.171-2.518c.69703.213 1.27403.653 1.72803 1.317.306.431.5.924.581 1.479s.031 1.1-.148 1.634l-.894 2.669 3.387 1.135-.629 1.881-9.95703-3.335 1.525-4.549c.114-.342.277-.661.49-.959.455-.626 1.037-1.047 1.745-1.261.713-.232 1.438-.236 2.172-.011" fill="#ac7644"/><path d="m15.1185 48.7252c-.174-.342-.41-.584-.708-.727-.389-.178-.754-.225-1.094-.138-.489.12-.831.37-1.027.75l-1.284 2.488 2.851 1.472 1.283-2.489c.219-.422.212-.876-.021-1.356m.215-2.516c.657.318 1.159.839 1.506 1.566.238.472.354.989.349 1.55s-.137 1.092-.395 1.593l-1.291 2.501 3.175 1.639-.91 1.762-9.33098-4.815 2.20098-4.263c.165-.321.376-.612.63-.873.546-.549 1.186-.876 1.917-.98.742-.121 1.457-.014 2.149.32" fill="#ac7644"/><path d="m19.2534 34.4206 1.039-1.408 8.45 6.231-1.203 1.632-5.516-4.068 2.661 7.941-1.039 1.408-8.452-6.231 1.195-1.619 5.516 4.067z" fill="#ac7644"/><path d="m29.8882 22.8972 1.397 1.406-2.347 2.334 6.004 6.04-1.407 1.399-6.003-6.04-2.348 2.334-1.399-1.408z" fill="#ac7644"/><path d="m42.8402 23.9109c.376-.26.673-.582.892-.969.218-.385.335-.794.347-1.223.014-.778-.296-1.604-.928-2.478-.639-.883-1.327-1.434-2.064-1.657-.412-.122-.836-.14-1.27-.053-.436.087-.835.269-1.201.544-.376.26-.674.585-.897.974-.223.388-.336.796-.342 1.218-.028.742.277 1.571.917 2.488.666.885 1.358 1.435 2.075 1.648.405.128.826.147 1.266.057.438-.09.841-.273 1.205-.549m1.095 1.513c-.623.45-1.297.755-2.022.913-.725.159-1.431.145-2.119-.042-1.236-.317-2.3-1.089-3.189-2.319-.895-1.236-1.299-2.491-1.213-3.765.032-.719.237-1.393.616-2.022.38-.628.884-1.171 1.515-1.627 1.331-.963 2.708-1.256 4.13-.882 1.197.31 2.263 1.086 3.199 2.33.877 1.261 1.278 2.512 1.205 3.755-.048.73-.26 1.411-.637 2.043-.376.633-.871 1.171-1.485 1.616" fill="#ac7644"/><path d="m54.1777 12.0886c.061-.379.013-.713-.145-1.005-.209-.373-.476-.625-.802-.756-.465-.19-.89-.19-1.272.002l-2.503 1.254 1.438 2.868 2.503-1.254c.426-.213.686-.583.781-1.109m1.655-1.906c.344.643.443 1.36.295 2.151-.086.523-.297 1.009-.631 1.459-.335.45-.754.802-1.257 1.055l-2.517 1.261 1.601 3.194-1.773.889-4.705-9.388 4.29-2.14999c.321-.161.663-.272 1.023-.334.765-.122 1.474-.009 2.126.338.67.338 1.186.847 1.548 1.52499" fill="#ac7644"/><path d="m65.983 2.96065 1.669-.524 3.146 10.01695-1.934.608-2.053-6.53895-2.539 7.97995-1.669.524-3.145-10.01695 1.92-.603 2.053 6.53895z" fill="#ac7644"/></g><g mask="url(#b)"><path clip-rule="evenodd" d="m79.9403 5.30727-.463-3.175-2.77.404c-.424.063-.772.305-1.044.728-.194.293-.269.653-.226 1.079.038.329.191.631.456.906.38.377.805.532 1.276.462zm1.229-5.30800242 1.517 10.39003242-1.963.286-.515-3.53503-2.324.339-1.201 3.78603-2.222.324 1.333-4.18803c-.524-.159-.977-.437-1.359-.833-.573-.566-.903-1.21-.989-1.934-.092-.763.04-1.474.395-2.136.336-.658.853-1.156 1.551-1.494.331-.156002.674-.260002 1.03-.312002z" fill="#ac7644" fill-rule="evenodd"/></g><path clip-rule="evenodd" d="m111.5 72.5038-20.0007-6.026-19.9993 6.026v14.0793c0 12.7129 6.1323 22.0549 19.339 27.6819l.6603.276.1914-.079c13.5313-5.604 19.8093-15.017 19.8093-27.8789zm-19.5-4.8318 18.5 5.575v13.3361l-.003.4383c-.137 12.0128-5.972 20.8116-18.497 26.2236zm-1-.0006-18.5 5.5756v13.3361c0 12.2383 5.8228 21.1849 18.5 26.6629z" fill="#ac7644" fill-rule="evenodd"/><circle cx="98" cy="3" fill="#ac7644" r="3"/><circle cx="83" cy="175" fill="#ac7644" r="3"/></svg>
