<svg width="55" height="65" viewBox="0 0 55 65" fill="none" xmlns="http://www.w3.org/2000/svg">
<path fill-rule="evenodd" clip-rule="evenodd" d="M0 0V28.9453V57.8906L27.2526 65L54.5052 57.8906V0H0Z" fill="#395542"/>
<path fill-rule="evenodd" clip-rule="evenodd" d="M40.9717 13.5413V14.8958H40.6348V13.5413C40.6348 13.4485 40.7103 13.373 40.8031 13.373C40.8962 13.373 40.9717 13.4485 40.9717 13.5413V13.5413ZM40.4595 13.5413V14.8958H40.123V13.5413C40.123 13.4485 40.1981 13.373 40.2912 13.373C40.384 13.373 40.4595 13.4485 40.4595 13.5413V13.5413ZM39.9486 13.5413V14.8958H39.6118V13.5413C39.6118 13.4485 39.6872 13.373 39.78 13.373C39.8731 13.373 39.9486 13.4485 39.9486 13.5413V13.5413ZM39.1009 18.2009H39.4374V15.0704H39.1009V18.2009ZM39.4376 18.6477V20.0018H39.1007V18.6477C39.1007 18.5549 39.1762 18.4794 39.2693 18.4794C39.3621 18.4794 39.4376 18.5549 39.4376 18.6477V18.6477ZM39.1007 13.5413V13.5413C39.1007 13.4485 39.1762 13.373 39.2693 13.373C39.3621 13.373 39.4376 13.4485 39.4376 13.5413V14.8958H39.1007V13.5413ZM38.9255 13.5413V14.8958H38.5887V13.5413C38.5887 13.4485 38.6642 13.373 38.757 13.373C38.8501 13.373 38.9255 13.4485 38.9255 13.5413V13.5413ZM38.5887 18.2009H38.9255V15.0704H38.5887V18.2009ZM38.9255 18.6477V20.0018H38.5887V18.6477C38.5887 18.5549 38.6642 18.4794 38.757 18.4794C38.8501 18.4794 38.9255 18.5549 38.9255 18.6477V18.6477ZM38.4139 13.5413V14.8958H38.0773V13.5413C38.0773 13.4485 38.1525 13.373 38.2456 13.373C38.3387 13.373 38.4139 13.4485 38.4139 13.5413V13.5413ZM38.0773 18.2009H38.4139V15.0704H38.0773V18.2009ZM38.4139 18.6477V20.0018H38.0773V18.6477C38.0773 18.5549 38.1525 18.4794 38.2456 18.4794C38.3387 18.4794 38.4139 18.5549 38.4139 18.6477V18.6477ZM37.5661 18.2009H37.903V15.0704H37.5661V18.2009ZM37.903 18.6477V20.0018H37.5661V18.6477C37.5661 18.5549 37.6416 18.4794 37.7344 18.4794C37.8275 18.4794 37.903 18.5549 37.903 18.6477V18.6477ZM37.5661 13.5413V13.5413C37.5661 13.4485 37.6416 13.373 37.7344 13.373C37.8275 13.373 37.903 13.4485 37.903 13.5413V14.8958H37.5661V13.5413ZM37.3913 18.6477V20.0018H37.0548V18.6477C37.0548 18.5549 37.1299 18.4794 37.223 18.4794C37.3161 18.4794 37.3913 18.5549 37.3913 18.6477V18.6477ZM36.8799 18.6477V20.0018H36.5431V18.6477C36.5431 18.5549 36.6189 18.4794 36.7117 18.4794C36.8044 18.4794 36.8799 18.5549 36.8799 18.6477V18.6477ZM36.3684 18.6477V20.0018H36.0316V18.6477C36.0316 18.5549 36.107 18.4794 36.1998 18.4794C36.2929 18.4794 36.3684 18.5549 36.3684 18.6477V18.6477ZM37.3917 13.0951V18.2013H37.2173V13.0947L36.5311 13.7914V18.2013H35.8574V27.4858H36.0321V20.177H36.369V27.4858H36.5433V20.177H36.8802V27.4858H37.0552V20.177H37.3917V27.4858H37.5664V20.177H37.9032V27.4858H38.0779V20.177H38.4144V27.4858H38.5891V20.177H38.926V27.4858H39.1007V20.177H39.4375V27.4858H39.5408H39.6122V18.2013V15.0708H39.949V27.4858H40.1237V15.0708H40.4602V27.4858H40.6349V15.0708H40.9718V27.4858H41.1465V13.0951H37.3917Z" fill="#DEE1E4"/>
<mask id="mask0_151_174" style="mask-type:alpha" maskUnits="userSpaceOnUse" x="0" y="0" width="55" height="65">
<path fill-rule="evenodd" clip-rule="evenodd" d="M0 10.4948C0 40.5972 24.4028 65 54.5052 65V65V0H0V10.4948Z" fill="white"/>
</mask>
<g mask="url(#mask0_151_174)">
<path fill-rule="evenodd" clip-rule="evenodd" d="M28.3031 25.9253H28.6399V16.6994H28.3031V25.9253ZM27.2805 25.9253H27.6173V16.6994H27.2805V25.9253ZM26.7695 25.9253H27.1063V16.6994H26.7695V25.9253ZM26.2584 25.9253H26.5953V16.6994H26.2584V25.9253ZM25.7464 25.9253H26.0833V16.6994H25.7464V25.9253ZM25.7464 15.1712V15.1712V15.1709C25.7464 15.0778 25.8219 15.0023 25.9147 15.0023C26.0078 15.0023 26.0833 15.0778 26.0833 15.1709V15.1712V16.525H25.7464V15.1712ZM26.2584 15.1712V15.1712V15.1709C26.2584 15.0778 26.3339 15.0023 26.427 15.0023C26.5198 15.0023 26.5953 15.0778 26.5953 15.1709V15.1712V16.525H26.2584V15.1712ZM26.7696 15.1712V15.1709C26.7696 15.0778 26.8448 15.0023 26.9379 15.0023C27.031 15.0023 27.1061 15.0778 27.1061 15.1709V15.1712V16.525H26.7696V15.1712ZM27.2805 15.1712V15.1709C27.2805 15.0778 27.356 15.0023 27.4491 15.0023C27.5419 15.0023 27.6173 15.0778 27.6173 15.1709V15.1712V16.525H27.2805V15.1712ZM27.7927 25.9253H28.1292V16.6994H27.7927V25.9253ZM27.7927 15.1712V15.1712V15.1709C27.7927 15.0778 27.8682 15.0023 27.9609 15.0023C28.054 15.0023 28.1292 15.0778 28.1292 15.1709V15.1712V16.525H27.7927V15.1712ZM28.3034 15.1712H28.3037C28.3037 15.1712 28.3034 15.1712 28.3034 15.1709C28.3034 15.0778 28.3792 15.0023 28.4723 15.0023C28.5651 15.0023 28.6406 15.0778 28.6406 15.1709V15.1712V16.525H28.3034V15.1712ZM28.8157 15.1712V15.1709C28.8157 15.0778 28.8909 15.0023 28.984 15.0023C29.0771 15.0023 29.1523 15.0778 29.1523 15.1709V15.1712V16.525H28.8157V15.1712ZM28.8157 25.9253H29.1523V16.6994H28.8157V25.9253ZM34.9958 25.9254H29.3259V16.6995V16.5712V14.7241H25.5711V16.5712V16.6995V25.9254H19.5082V18.897L18.8223 18.2006V27.4851H19.4442H19.5082V27.4851V26.2034H19.8944V27.4851H20.5871V26.2034H20.973V27.4851H21.6653V26.2034H22.0516V27.4851H22.7443V26.2034H23.1305V27.4851H23.8229V26.2034H24.2091V27.4851H24.9015V26.2034H25.2877V27.4851H25.9801V26.2034H26.3663V27.4851H27.059V26.2034H27.4449V27.4851H28.1376V26.2034H28.5239V27.4851H29.2162V26.2034H29.6024V27.4851H30.2948V26.2034H30.6807V27.4851H31.3737V26.2034H31.7596V27.4851H32.4523V26.2034H32.8382V27.4851H33.5309V26.2034H33.9172V27.4851H34.6095V26.2034H34.9958V27.4851H35.1054H35.6816V18.2006L34.9958 18.897V25.9254Z" fill="#DEE1E4"/>
<path fill-rule="evenodd" clip-rule="evenodd" d="M17.9618 18.6477V20.0018H17.6249V18.6477C17.6249 18.5549 17.7004 18.4794 17.7932 18.4794C17.8863 18.4794 17.9618 18.5549 17.9618 18.6477V18.6477ZM18.1373 18.6477V18.6477C18.1373 18.5549 18.2121 18.4794 18.3052 18.4794C18.3986 18.4794 18.4735 18.5549 18.4735 18.6477V20.0018H18.1373V18.6477ZM17.4514 18.6477V20.0018H17.1142V18.6477H17.1146H17.1142C17.1142 18.5549 17.1901 18.4794 17.2828 18.4794C17.3756 18.4794 17.4514 18.5549 17.4514 18.6477V18.6477ZM16.9392 16.7998V18.1543H16.6024V16.7998C16.6024 16.707 16.6779 16.6315 16.7706 16.6315C16.8637 16.6315 16.9392 16.707 16.9392 16.7998V16.7998ZM16.9392 18.6477V20.0018H16.6024V18.6477C16.6024 18.5549 16.6779 18.4794 16.7706 18.4794C16.8637 18.4794 16.9392 18.5549 16.9392 18.6477V18.6477ZM16.4277 16.7998V18.1543H16.0908V16.7998C16.0908 16.707 16.1663 16.6315 16.2594 16.6315C16.3522 16.6315 16.4277 16.707 16.4277 16.7998V16.7998ZM16.4277 18.6477V20.0018H16.0908V18.6477C16.0908 18.5549 16.1663 18.4794 16.2594 18.4794C16.3522 18.4794 16.4277 18.5549 16.4277 18.6477V18.6477ZM15.9167 16.7998V18.1543H15.5798V16.7998C15.5798 16.707 15.6553 16.6315 15.7484 16.6315C15.8412 16.6315 15.9167 16.707 15.9167 16.7998V16.7998ZM15.9167 18.6477V20.0018H15.5798V18.6477C15.5798 18.5549 15.6553 18.4794 15.7484 18.4794C15.8412 18.4794 15.9167 18.5549 15.9167 18.6477V18.6477ZM15.4051 16.7998V18.1543H15.0683V16.7998C15.0683 16.707 15.1438 16.6315 15.2365 16.6315C15.3296 16.6315 15.4051 16.707 15.4051 16.7998V16.7998ZM15.4051 18.6477V20.0018H15.0683V18.6477C15.0683 18.5549 15.1438 18.4794 15.2365 18.4794C15.3296 18.4794 15.4051 18.5549 15.4051 18.6477V18.6477ZM14.8936 16.7998V18.1543H14.5568V16.7998C14.5568 16.707 14.6322 16.6315 14.725 16.6315C14.8181 16.6315 14.8936 16.707 14.8936 16.7998V16.7998ZM14.3824 16.7998V18.1543H14.0459V16.7998C14.0459 16.707 14.121 16.6315 14.2141 16.6315C14.3072 16.6315 14.3824 16.707 14.3824 16.7998V16.7998ZM13.8705 16.7998V18.1543H13.5337V16.7998C13.5337 16.707 13.6092 16.6315 13.7023 16.6315C13.795 16.6315 13.8705 16.707 13.8705 16.7998V16.7998ZM17.9737 17.0494L17.2875 16.353V18.2008H17.1128V16.353H13.3584V27.485H13.5327V18.3288H13.8696V27.485H14.0446V18.3288H14.3811V27.485H14.5558V18.3288H14.8927V27.485H14.9638H15.0674V20.1765H15.4042V27.485H15.5786V20.1765H15.9154V27.485H16.0901V20.1765H16.4269V27.485H16.6016V20.1765H16.9385V27.485H17.1128V20.1765H17.45V27.485H17.6244V20.1765H17.9612V27.485H18.1359V20.1765H18.4724V27.485H18.6474V18.2008H17.9737V17.0494Z" fill="#DEE1E4"/>
<path fill-rule="evenodd" clip-rule="evenodd" d="M9.31055 37.4914L9.72187 37.0192C10.6535 37.8787 11.5128 38.2779 12.7589 38.2779C14.0295 38.2779 14.9005 37.5642 14.9005 36.596V36.5716C14.9005 35.6765 14.4286 35.1562 12.505 34.7689C10.4721 34.3575 9.64943 33.6679 9.64943 32.3855V32.3615C9.64943 31.1031 10.7988 30.1353 12.3716 30.1353C13.606 30.1353 14.4164 30.4738 15.2757 31.1634L14.8765 31.6594C14.0776 30.9694 13.2793 30.7033 12.3476 30.7033C11.1014 30.7033 10.2784 31.4176 10.2784 32.3006V32.3249C10.2784 33.2204 10.7382 33.7648 12.7467 34.1761C14.7069 34.5756 15.5299 35.277 15.5299 36.5113V36.5357C15.5299 37.9028 14.3558 38.8466 12.7227 38.8466C11.3675 38.8466 10.3268 38.3991 9.31055 37.4914" fill="#DEE1E4"/>
<path fill-rule="evenodd" clip-rule="evenodd" d="M34.9229 38.7661H35.5519V30.2358H34.9229V38.7661Z" fill="#DEE1E4"/>
<path fill-rule="evenodd" clip-rule="evenodd" d="M38.1543 30.2344H38.7471L44.5913 37.6647V30.2357H45.1963V38.766H44.7244L38.7593 31.1782V38.766H38.1543V30.2344Z" fill="#DEE1E4"/>
<path fill-rule="evenodd" clip-rule="evenodd" d="M21.2398 30.2358H20.6348L16.6904 38.7661H17.3438L20.9249 30.9254L24.4945 38.7661H25.1841L21.2398 30.2358Z" fill="#DEE1E4"/>
<path fill-rule="evenodd" clip-rule="evenodd" d="M28.6055 38.7657H29.2105L33.1548 30.2358H32.5014L28.9203 38.0761L25.3507 30.2358H24.6611L28.6055 38.7657Z" fill="#DEE1E4"/>
<path fill-rule="evenodd" clip-rule="evenodd" d="M18.7129 40.8022H21.0881V41.1973H19.1439V42.2793H20.8768V42.6744H19.1439V44.0709H18.7129V40.8022Z" fill="#DEE1E4"/>
<path fill-rule="evenodd" clip-rule="evenodd" d="M25.165 40.8022H25.6092L26.741 42.5129L27.8724 40.8022H28.3213V44.0709H27.8903V41.5118L26.7454 43.1998H26.7274L25.5872 41.5206V44.0709H25.165V40.8022Z" fill="#DEE1E4"/>
<path fill-rule="evenodd" clip-rule="evenodd" d="M29.2861 44.0704H29.7218V40.8018H29.2861V44.0704Z" fill="#DEE1E4"/>
<path fill-rule="evenodd" clip-rule="evenodd" d="M30.6875 40.8022H31.1185V43.6758H32.9232V44.0709H30.6875V40.8022Z" fill="#DEE1E4"/>
<path fill-rule="evenodd" clip-rule="evenodd" d="M34.0145 42.778L32.6719 40.8022H33.1885L34.2342 42.3829L35.2895 40.8022H35.7922L34.4502 42.7692V44.0709H34.0145V42.778Z" fill="#DEE1E4"/>
<path fill-rule="evenodd" clip-rule="evenodd" d="M23.0369 40.7798H22.6327L21.1553 44.0711H21.6001L22.8256 41.2825L24.0515 44.0711H24.5095L23.0369 40.7798Z" fill="#DEE1E4"/>
<path fill-rule="evenodd" clip-rule="evenodd" d="M23.5421 43.224C23.319 43.3066 23.0773 43.3516 22.8254 43.3516C22.5729 43.3516 22.3315 43.3062 22.1077 43.2236L21.9473 43.5889C22.2201 43.6929 22.5164 43.7504 22.8254 43.7504C23.1345 43.7504 23.4297 43.6932 23.7026 43.5889L23.5421 43.224Z" fill="#DEE1E4"/>
</g>
</svg>
