<svg width="181" height="216" viewBox="0 0 181 216" fill="none" xmlns="http://www.w3.org/2000/svg">
<path fill-rule="evenodd" clip-rule="evenodd" d="M0 0V96.1211V192.242L90.5 215.851L181 192.242V0H0Z" fill="#395542"/>
<path fill-rule="evenodd" clip-rule="evenodd" d="M136.057 44.9679V49.4659H134.938V44.9679C134.938 44.6598 135.189 44.4091 135.497 44.4091C135.806 44.4091 136.057 44.6598 136.057 44.9679ZM134.358 44.9679V49.4659H133.241V44.9679C133.241 44.6598 133.49 44.4091 133.799 44.4091C134.107 44.4091 134.358 44.6598 134.358 44.9679ZM132.661 44.9679V49.4659H131.542V44.9679C131.542 44.6598 131.793 44.4091 132.101 44.4091C132.41 44.4091 132.661 44.6598 132.661 44.9679ZM129.844 60.4417H130.962V50.046H129.844V60.4417ZM130.962 61.9245V66.4214H129.843V61.9245C129.843 61.6165 130.094 61.3658 130.403 61.3658C130.711 61.3658 130.962 61.6165 130.962 61.9245ZM129.843 44.9679C129.843 44.6598 130.094 44.4091 130.403 44.4091C130.711 44.4091 130.962 44.6598 130.962 44.9679V49.4659H129.843V44.9679ZM129.263 44.9679V49.4659H128.145V44.9679C128.145 44.6598 128.395 44.4091 128.703 44.4091C129.013 44.4091 129.263 44.6598 129.263 44.9679ZM128.145 60.4417H129.263V50.046H128.145V60.4417ZM129.263 61.9245V66.4214H128.145V61.9245C128.145 61.6165 128.395 61.3658 128.703 61.3658C129.013 61.3658 129.263 61.6165 129.263 61.9245ZM127.565 44.9679V49.4659H126.447V44.9679C126.447 44.6598 126.697 44.4091 127.006 44.4091C127.315 44.4091 127.565 44.6598 127.565 44.9679ZM126.447 60.4417H127.565V50.046H126.447V60.4417ZM127.565 61.9245V66.4214H126.447V61.9245C126.447 61.6165 126.697 61.3658 127.006 61.3658C127.315 61.3658 127.565 61.6165 127.565 61.9245ZM124.748 60.4417H125.867V50.046H124.748V60.4417ZM125.867 61.9245V66.4214H124.748V61.9245C124.748 61.6165 124.999 61.3658 125.307 61.3658C125.616 61.3658 125.867 61.6165 125.867 61.9245ZM124.748 44.9679C124.748 44.6598 124.999 44.4091 125.307 44.4091C125.616 44.4091 125.867 44.6598 125.867 44.9679V49.4659H124.748V44.9679ZM124.168 61.9245V66.4214H123.051V61.9245C123.051 61.6165 123.3 61.3658 123.609 61.3658C123.919 61.3658 124.168 61.6165 124.168 61.9245ZM122.47 61.9245V66.4214H121.351V61.9245C121.351 61.6165 121.603 61.3658 121.911 61.3658C122.219 61.3658 122.47 61.6165 122.47 61.9245ZM120.772 61.9245V66.4214H119.653V61.9245C119.653 61.6165 119.904 61.3658 120.212 61.3658C120.521 61.3658 120.772 61.6165 120.772 61.9245ZM124.168 43.485V60.4417H123.589V43.4839L121.31 45.7975V60.4417H119.073V91.2735H119.653V67.0026H120.772V91.2735H121.351V67.0026H122.47V91.2735H123.051V67.0026H124.168V91.2735H124.748V67.0026H125.867V91.2735H126.447V67.0026H127.565V91.2735H128.145V67.0026H129.263V91.2735H129.843V67.0026H130.962V91.2735H131.305H131.542V60.4417V50.046H132.661V91.2735H133.241V50.046H134.358V91.2735H134.938V50.046H136.057V91.2735H136.637V43.485H124.168Z" fill="#DEE1E4"/>
<mask id="mask0_0:13" style="mask-type:alpha" maskUnits="userSpaceOnUse" x="0" y="0" width="181" height="216">
<path fill-rule="evenodd" clip-rule="evenodd" d="M0 115.851C0 171.079 44.7715 215.851 100 215.851H181V0H0V115.851Z" fill="white"/>
</mask>
<g mask="url(#mask0_0:13)">
<path fill-rule="evenodd" clip-rule="evenodd" d="M93.9896 86.0929H95.1082V55.4556H93.9896V86.0929ZM90.5933 86.0929H91.7119V55.4556H90.5933V86.0929ZM88.8957 86.0929H90.0143V55.4556H88.8957V86.0929ZM87.197 86.0929H88.3156V55.4556H87.197V86.0929ZM85.4983 86.0929H86.6169V55.4556H85.4983V86.0929ZM85.4983 50.3797V50.3786C85.4983 50.0694 85.749 49.8187 86.0571 49.8187C86.3662 49.8187 86.6169 50.0694 86.6169 50.3786V50.3797V54.8755H85.4983V50.3797ZM87.197 50.3797V50.3786C87.197 50.0694 87.4477 49.8187 87.7569 49.8187C88.0649 49.8187 88.3156 50.0694 88.3156 50.3786V50.3797V54.8755H87.197V50.3797ZM88.8957 50.3797V50.3786C88.8957 50.0694 89.1453 49.8187 89.4545 49.8187C89.7636 49.8187 90.0132 50.0694 90.0132 50.3786V50.3797V54.8755H88.8957V50.3797ZM90.5933 50.3797V50.3786C90.5933 50.0694 90.844 49.8187 91.1532 49.8187C91.4612 49.8187 91.7119 50.0694 91.7119 50.3786V50.3797V54.8755H90.5933V50.3797ZM92.292 86.0929H93.4095V55.4556H92.292V86.0929ZM92.292 50.3797V50.3786C92.292 50.0694 92.5427 49.8187 92.8508 49.8187C93.1599 49.8187 93.4095 50.0694 93.4095 50.3786V50.3797V54.8755H92.292V50.3797ZM93.9896 50.3797H93.9907C93.9907 50.3797 93.9896 50.3797 93.9896 50.3786C93.9896 50.0694 94.2414 49.8187 94.5506 49.8187C94.8586 49.8187 95.1093 50.0694 95.1093 50.3786V50.3797V54.8755H93.9896V50.3797ZM95.6894 50.3797V50.3786C95.6894 50.0694 95.939 49.8187 96.2482 49.8187C96.5573 49.8187 96.8069 50.0694 96.8069 50.3786V50.3797V54.8755H95.6894V50.3797ZM95.6894 86.0929H96.8069V55.4556H95.6894V86.0929ZM116.215 86.0929H97.387V55.4556V55.0295V48.8958H84.9182V55.0295V55.4556V86.0929H64.7845V62.7529L62.5068 60.4404V91.2722H64.572H64.7845V87.0159H66.0673V91.2722H68.3674V87.0159H69.649V91.2722H71.9481V87.0159H73.2308V91.2722H75.531V87.0159H76.8137V91.2722H79.1127V87.0159H80.3955V91.2722H82.6945V87.0159H83.9773V91.2722H86.2763V87.0159H87.559V91.2722H89.8592V87.0159H91.1408V91.2722H93.441V87.0159H94.7237V91.2722H97.0228V87.0159H98.3055V91.2722H100.605V87.0159H101.886V91.2722H104.187V87.0159H105.469V91.2722H107.769V87.0159H109.051V91.2722H111.351V87.0159H112.634V91.2722H114.933V87.0159H116.215V91.2722H116.58H118.493V60.4404L116.215 62.7529V86.0929Z" fill="#DEE1E4"/>
<path fill-rule="evenodd" clip-rule="evenodd" d="M59.6482 61.9245V66.4214H58.5296V61.9245C58.5296 61.6165 58.7803 61.3658 59.0884 61.3658C59.3975 61.3658 59.6482 61.6165 59.6482 61.9245ZM60.2294 61.9245C60.2294 61.6165 60.4779 61.3658 60.7871 61.3658C61.0973 61.3658 61.3458 61.6165 61.3458 61.9245V66.4214H60.2294V61.9245ZM57.9506 61.9245V66.4214H56.8309V61.9245H56.832H56.8309C56.8309 61.6165 57.0827 61.3658 57.3908 61.3658C57.6988 61.3658 57.9506 61.6165 57.9506 61.9245ZM56.2519 55.7885V60.2865H55.1333V55.7885C55.1333 55.4805 55.384 55.2298 55.6921 55.2298C56.0012 55.2298 56.2519 55.4805 56.2519 55.7885ZM56.2519 61.9245V66.4214H55.1333V61.9245C55.1333 61.6165 55.384 61.3658 55.6921 61.3658C56.0012 61.3658 56.2519 61.6165 56.2519 61.9245ZM54.5532 55.7885V60.2865H53.4346V55.7885C53.4346 55.4805 53.6853 55.2298 53.9945 55.2298C54.3025 55.2298 54.5532 55.4805 54.5532 55.7885ZM54.5532 61.9245V66.4214H53.4346V61.9245C53.4346 61.6165 53.6853 61.3658 53.9945 61.3658C54.3025 61.3658 54.5532 61.6165 54.5532 61.9245ZM52.8545 55.7885V60.2865H51.7359V55.7885C51.7359 55.4805 51.9866 55.2298 52.2958 55.2298C52.6038 55.2298 52.8545 55.4805 52.8545 55.7885ZM52.8545 61.9245V66.4214H51.7359V61.9245C51.7359 61.6165 51.9866 61.3658 52.2958 61.3658C52.6038 61.3658 52.8545 61.6165 52.8545 61.9245ZM51.157 55.7885V60.2865H50.0384V55.7885C50.0384 55.4805 50.2891 55.2298 50.5971 55.2298C50.9063 55.2298 51.157 55.4805 51.157 55.7885ZM51.157 61.9245V66.4214H50.0384V61.9245C50.0384 61.6165 50.2891 61.3658 50.5971 61.3658C50.9063 61.3658 51.157 61.6165 51.157 61.9245ZM49.4583 55.7885V60.2865H48.3397V55.7885C48.3397 55.4805 48.5904 55.2298 48.8984 55.2298C49.2076 55.2298 49.4583 55.4805 49.4583 55.7885ZM47.7596 55.7885V60.2865H46.6421V55.7885C46.6421 55.4805 46.8917 55.2298 47.2008 55.2298C47.51 55.2298 47.7596 55.4805 47.7596 55.7885ZM46.0609 55.7885V60.2865H44.9423V55.7885C44.9423 55.4805 45.193 55.2298 45.5021 55.2298C45.8102 55.2298 46.0609 55.4805 46.0609 55.7885ZM59.6898 56.6182L57.411 54.3057V60.4417H56.8309V54.3057H44.3633V91.2724H44.9423V60.8666H46.0609V91.2724H46.6421V60.8666H47.7596V91.2724H48.3397V60.8666H49.4583V91.2724H49.6943H50.0384V67.0026H51.157V91.2724H51.7359V67.0026H52.8545V91.2724H53.4346V67.0026H54.5532V91.2724H55.1333V67.0026H56.2519V91.2724H56.8309V67.0026H57.9506V91.2724H58.5296V67.0026H59.6482V91.2724H60.2283V67.0026H61.3458V91.2724H61.927V60.4417H59.6898V56.6182Z" fill="#DEE1E4"/>
<path fill-rule="evenodd" clip-rule="evenodd" d="M30.916 124.5L32.2819 122.932C35.3758 125.786 38.2291 127.112 42.3674 127.112C46.5866 127.112 49.4792 124.742 49.4792 121.526V121.446C49.4792 118.473 47.912 116.745 41.5242 115.459C34.7732 114.093 32.0414 111.803 32.0414 107.544V107.465C32.0414 103.286 35.8581 100.072 41.0812 100.072C45.1802 100.072 47.8716 101.196 50.7248 103.486L49.3994 105.133C46.7462 102.842 44.0953 101.958 41.0014 101.958C36.8632 101.958 34.1302 104.33 34.1302 107.262V107.343C34.1302 110.317 35.6569 112.125 42.3269 113.491C48.8361 114.817 51.5691 117.146 51.5691 121.245V121.326C51.5691 125.866 47.6703 129 42.2471 129C37.7468 129 34.2909 127.514 30.916 124.5Z" fill="#DEE1E4"/>
<path fill-rule="evenodd" clip-rule="evenodd" d="M115.973 128.734H118.061V100.407H115.973V128.734Z" fill="#DEE1E4"/>
<path fill-rule="evenodd" clip-rule="evenodd" d="M126.699 100.403H128.668L148.075 125.077V100.407H150.084V128.734H148.517L128.708 103.537V128.734H126.699V100.403Z" fill="#DEE1E4"/>
<path fill-rule="evenodd" clip-rule="evenodd" d="M70.5321 100.407H68.5231L55.4248 128.734H57.5946L69.4866 102.697L81.3404 128.734H83.6305L70.5321 100.407Z" fill="#DEE1E4"/>
<path fill-rule="evenodd" clip-rule="evenodd" d="M94.9938 128.733H97.0028L110.101 100.407H107.931L96.0394 126.443L84.1856 100.407H81.8955L94.9938 128.733Z" fill="#DEE1E4"/>
<path fill-rule="evenodd" clip-rule="evenodd" d="M62.1406 135.495H70.0282V136.807H63.5718V140.4H69.3267V141.712H63.5718V146.35H62.1406V135.495Z" fill="#DEE1E4"/>
<path fill-rule="evenodd" clip-rule="evenodd" d="M83.5674 135.495H85.0424L88.8006 141.176L92.5578 135.495H94.0485V146.35H92.6174V137.852L88.8153 143.457H88.7557L84.9693 137.881V146.35H83.5674V135.495Z" fill="#DEE1E4"/>
<path fill-rule="evenodd" clip-rule="evenodd" d="M97.2539 146.349H98.7008V135.495H97.2539V146.349Z" fill="#DEE1E4"/>
<path fill-rule="evenodd" clip-rule="evenodd" d="M101.907 135.495H103.338V145.038H109.332V146.35H101.907V135.495Z" fill="#DEE1E4"/>
<path fill-rule="evenodd" clip-rule="evenodd" d="M112.956 142.056L108.497 135.495H110.213L113.685 140.744L117.19 135.495H118.859L114.403 142.027V146.35H112.956V142.056Z" fill="#DEE1E4"/>
<path fill-rule="evenodd" clip-rule="evenodd" d="M76.4994 135.421H75.1571L70.251 146.35H71.7282L75.7979 137.09L79.8687 146.35H81.3898L76.4994 135.421Z" fill="#DEE1E4"/>
<path fill-rule="evenodd" clip-rule="evenodd" d="M78.1781 143.537C77.4372 143.812 76.6345 143.961 75.7981 143.961C74.9594 143.961 74.1578 143.81 73.4147 143.536L72.8818 144.749C73.788 145.094 74.7717 145.285 75.7981 145.285C76.8245 145.285 77.8048 145.095 78.7109 144.749L78.1781 143.537Z" fill="#DEE1E4"/>
</g>
</svg>
