<svg width="158" height="140" viewBox="0 0 158 140" fill="none" xmlns="http://www.w3.org/2000/svg">
<path d="M0 109.392L1.81131 107.314C5.91366 111.097 9.69575 112.854 15.1828 112.854C20.7769 112.854 24.6121 109.711 24.6121 105.449V105.343C24.6121 101.401 22.5344 99.1098 14.0639 97.4054C5.11432 95.5935 1.4917 92.5576 1.4917 86.9104V86.804C1.4917 81.2638 6.55286 77.002 13.4778 77.002C18.9118 77.002 22.4812 78.4937 26.2633 81.5302L24.5052 83.7143C20.9895 80.6777 17.4732 79.5056 13.3715 79.5056C7.88444 79.5056 4.26183 82.6485 4.26183 86.5376V86.6446C4.26183 90.5868 6.28642 92.9835 15.1297 94.7954C23.7596 96.5529 27.3823 99.6427 27.3823 105.077V105.183C27.3823 111.203 22.2148 115.358 15.0227 115.358C9.05654 115.358 4.47511 113.387 0 109.392Z" fill="white"/>
<path d="M112.775 77.4483H115.546V115.005H112.775V77.4483Z" fill="white"/>
<path d="M126.996 77.4426H129.606L155.337 110.158V77.4478H158V115.005H155.923L129.659 81.5981V115.005H126.996V77.4426Z" fill="white"/>
<path d="M52.5268 77.4483H49.863L32.4961 115.005H35.3732L51.1414 80.4848L66.8571 115.005H69.8937L52.5268 77.4483Z" fill="white"/>
<path d="M84.9587 115.006H87.6225L104.989 77.4488H102.112L86.3441 111.97L70.6284 77.4488H67.5918L84.9587 115.006Z" fill="white"/>
<path d="M38.2601 131.696C40.4941 131.696 41.9573 130.47 41.9573 128.691V128.652C41.9573 126.714 40.4941 125.705 38.2996 125.705H34.8793V131.696H38.2601ZM32.9805 123.966H38.4578C41.7401 123.966 43.8749 125.745 43.8749 128.592V128.631C43.8749 131.775 41.2649 133.416 38.181 133.416H34.8793V138.359H32.9805V123.966Z" fill="white"/>
<path d="M52.9922 131.242C55.0486 131.242 56.4722 130.175 56.4722 128.455V128.415C56.4722 126.714 55.1867 125.706 52.9922 125.706H48.781V131.242H52.9922ZM46.8828 123.967H53.131C54.9306 123.967 56.3536 124.5 57.2437 125.409C57.975 126.121 58.3899 127.169 58.3899 128.315V128.356C58.3899 130.728 56.8282 132.151 54.6337 132.606L58.8845 138.36H56.5909L52.6162 132.943H48.781V138.36H46.8828V123.967Z" fill="white"/>
<path d="M61.9082 123.966H72.3871V125.686H63.8057V130.254H71.4581V131.973H63.8057V136.64H72.4863V138.36H61.9082V123.966Z" fill="white"/>
<path d="M75.8457 123.966H77.8029L82.7856 131.499L87.7683 123.966H89.7456V138.36H87.8474V127.09L82.8063 134.524H82.7266L77.7043 127.13V138.36H75.8457V123.966Z" fill="white"/>
<path d="M93.998 123.966H95.9157V138.36H93.998V123.966Z" fill="white"/>
<path d="M100.166 123.966H110.646V125.686H102.064V130.254H109.716V131.973H102.064V136.64H110.744V138.36H100.166V123.966Z" fill="white"/>
<path d="M120.215 131.242C122.271 131.242 123.695 130.175 123.695 128.455V128.415C123.695 126.714 122.409 125.706 120.215 125.706H116.003V131.242H120.215ZM114.105 123.967H120.354C122.153 123.967 123.576 124.5 124.466 125.409C125.198 126.121 125.613 127.169 125.613 128.315V128.356C125.613 130.728 124.051 132.151 121.856 132.606L126.107 138.36H123.814L119.839 132.943H116.003V138.36H114.105V123.967Z" fill="white"/>
<path d="M61.1953 22.2711V65.3198H64.4692V29.2985V29.2979C64.4692 27.2247 66.1482 25.5449 68.2214 25.5449C70.294 25.5449 71.9743 27.2247 71.9743 29.2979V29.2985V65.3198H75.2475V29.2985V29.2979C75.2475 27.2247 76.9272 25.5449 78.9998 25.5449C81.0724 25.5449 82.7534 27.2247 82.7534 29.2979V29.2985V65.3198H86.0272V29.2985V29.2979C86.0272 27.2247 87.7063 25.5449 89.7788 25.5449C91.8514 25.5449 93.5318 27.2247 93.5318 29.2979V29.2985V65.3198H96.8056V22.2711H61.1953Z" fill="white"/>
<path d="M93.5318 0.999907V13.5099C93.5318 15.5831 91.8521 17.2628 89.7795 17.2628C87.7069 17.2628 86.0266 15.5831 86.0266 13.5099V0.999907H82.7527V13.5099C82.7527 15.5831 81.073 17.2628 79.0005 17.2628C76.9279 17.2628 75.2475 15.5831 75.2475 13.5099V0.999907H71.9737V13.5099C71.9737 15.5831 70.2946 17.2628 68.2214 17.2628C66.1489 17.2628 64.4685 15.5831 64.4685 13.5099V0.999907H61.1953V20.5366H96.8056V0.999907H93.5318Z" fill="white"/>
</svg>
