<svg width="30" height="21" viewBox="0 0 30 21" fill="none" xmlns="http://www.w3.org/2000/svg">
<mask id="mask0_210:11" style="mask-type:alpha" maskUnits="userSpaceOnUse" x="0" y="0" width="30" height="21">
<path fill-rule="evenodd" clip-rule="evenodd" d="M0 0.502441H30V20.5024H0V0.502441Z" fill="currentColor"/>
</mask>
<g mask="url(#mask0_210:11)">
<path fill-rule="evenodd" clip-rule="evenodd" d="M2.85913 12.0551C2.04203 12.0551 1.37728 11.3584 1.37728 10.5028C1.37728 9.64653 2.04203 8.94975 2.85913 8.94975C3.67699 8.94975 4.34173 9.64653 4.34173 10.5028C4.34173 11.3584 3.67699 12.0551 2.85913 12.0551ZM24.3519 8.58768C22.6244 7.82287 21.073 6.72805 19.7398 5.33216C18.4074 3.93705 17.361 2.31202 16.6297 0.502441L15.3615 1.06393C16.1629 3.04555 17.3079 4.82463 18.7666 6.35112C20.1551 7.80567 21.7669 8.95132 23.5498 9.78182H5.62565C5.31569 8.47976 4.19758 7.5085 2.85913 7.5085C1.28317 7.5085 0 8.85122 0 10.5028C0 12.1537 1.28317 13.4972 2.85913 13.4972C4.19758 13.4972 5.31569 12.5259 5.62565 11.2238H23.5483C21.7647 12.0543 20.1529 13.2008 18.7666 14.653C17.3087 16.1787 16.1629 17.9578 15.3615 19.9402L16.6297 20.5024C17.3617 18.6913 18.4074 17.0671 19.7406 15.6727C21.0716 14.2784 22.6229 13.1828 24.3519 12.4164C26.1408 11.625 28.0409 11.2238 30 11.2238V9.78182C28.0401 9.78182 26.14 9.37986 24.3519 8.58768Z" fill="currentColor"/>
</g>
</svg>
