<svg fill="none" xmlns="http://www.w3.org/2000/svg" viewBox="0 0 18 18"><path d="M9 9.94a2.88 2.88 0 1 1-.02-5.76A2.88 2.88 0 0 1 9 9.94Zm0-3.75a.88.88 0 1 0-.02 1.76A.88.88 0 0 0 9 6.19Z" fill="#366EFF"/><path d="M9 17.23c-.4 0-.78-.15-1.08-.41-1.59-1.39-5.28-5.12-5.28-9.7a6.35 6.35 0 1 1 12.69.43c-.22 4.53-3.76 8-5.27 9.29-.3.25-.67.39-1.06.39ZM9 2.77c-1.05 0-2.07.37-2.86 1.07a5.26 5.26 0 0 0-1.45 4c.34 3 2.68 5.66 4 6.92a.47.47 0 0 0 .66 0c1.35-1.28 3.84-4.05 4-7.34A4.34 4.34 0 0 0 9 2.77Z" fill="#366EFF"/></svg>