<svg width="26" height="24" viewBox="0 0 26 24" fill="none" xmlns="http://www.w3.org/2000/svg">
<path fill-rule="evenodd" clip-rule="evenodd" d="M10.4329 11.2083C10.3287 11.4821 10.3827 11.7921 10.5744 12.0136L10.6526 12.0921C10.8461 12.2607 11.1119 12.3257 11.3648 12.2588L15.0441 11.287L15.2356 11.4391C17.1481 12.8912 19.7256 13.1018 21.8532 11.9381C24.1278 10.694 25.4108 8.14033 25.0788 5.52602C24.7465 2.91 22.866 0.775351 20.3534 0.168915C17.3563 -0.55032 14.3134 1.08473 13.1754 3.98057L10.4329 11.2083ZM15.3042 10.1848L11.5111 11.185L14.0352 4.53703C14.9324 1.98147 17.5487 0.52425 20.1194 1.14116C22.2246 1.64926 23.8064 3.44482 24.0867 5.652C24.3672 7.86088 23.2849 10.0152 21.3733 11.0607C19.4668 12.1036 17.1311 11.8272 15.505 10.3653L15.3042 10.1848ZM4.13301 2.75418C3.59121 2.78876 3.08814 3.03742 2.73223 3.44095L1.22282 5.30271C-0.831904 7.74855 -0.181496 10.3429 2.30924 13.5312L2.67749 13.9908C2.74091 14.068 2.80536 14.1457 2.87082 14.2237L3.27557 14.6959C3.34502 14.7753 3.41545 14.8551 3.48685 14.9353L3.99409 15.4931L4.78103 16.3056L6.45286 17.9815L7.04213 18.5612L7.64723 19.1413L7.89608 19.3686L8.38673 19.8053C8.54874 19.9468 8.70921 20.0842 8.86821 20.2173L9.3408 20.6042L9.8048 20.9653C12.7936 23.2272 15.2568 23.8183 17.5576 22.0176L19.5057 20.4343C19.9726 20.0918 20.2756 19.5376 20.314 18.9356C20.3524 18.3335 20.1224 17.7453 19.6857 17.329L19.4533 17.1474L17.4134 15.618L16.6744 15.0785C16.6615 15.0697 16.6526 15.064 16.6481 15.0616C15.9552 14.6928 15.1121 14.7539 14.4795 15.2188L13.2876 16.1508C13.2717 16.1633 13.2505 16.166 13.2323 16.1579C12.9828 16.0479 12.7321 15.9265 12.4803 15.7938C11.4329 15.2685 10.4852 14.5839 9.66469 13.7617C8.71941 12.819 7.9134 11.7479 7.2699 10.5796C7.14221 10.3365 7.02066 10.0854 6.90984 9.83499C6.90212 9.81746 6.90478 9.79624 6.91708 9.78052L7.84019 8.60042C8.31418 7.95588 8.37527 7.11275 8.00639 6.41974L7.54056 5.77684L5.75616 3.40115C5.7495 3.39297 5.74473 3.38733 5.74195 3.38438C5.32318 2.94558 4.73501 2.71576 4.13301 2.75418ZM4.1967 3.75215C4.50378 3.73255 4.8038 3.84978 5.01625 4.07238L7.1236 6.88951C7.31188 7.24324 7.28071 7.67346 7.04347 7.99626L6.12958 9.16421C5.89007 9.4701 5.83832 9.88322 5.99507 10.239C6.11537 10.5108 6.2467 10.782 6.38935 11.0534C7.08312 12.3132 7.94629 13.4603 8.9577 14.4689C9.85328 15.3663 10.8886 16.1143 12.0231 16.6831C12.2862 16.8219 12.5578 16.9534 12.8289 17.073C13.1847 17.2298 13.5979 17.178 13.9039 16.9383L15.0837 16.0155C15.3945 15.7873 15.8247 15.7562 16.1783 15.9444L18.995 18.0522C19.2183 18.2651 19.3356 18.5649 19.316 18.8719C19.2992 19.1349 19.1834 19.3801 18.9946 19.5595L17.3217 20.9208L17.2842 20.9416C17.2155 20.981 17.1802 21.0112 17.1091 21.129L17.0915 21.1083C14.9822 22.8782 12.5341 22.0308 9.29562 19.2683L8.81601 18.8505C8.73511 18.7786 8.65374 18.7056 8.57187 18.6315L8.25534 18.3411L7.73391 17.8391L6.65074 16.7683L5.22893 15.3341L4.72696 14.8127L4.66232 14.7433C4.50967 14.5776 4.36142 14.4138 4.21764 14.2521L3.79981 13.7724C1.10484 10.613 0.232501 8.20588 1.83496 6.13217L3.4099 4.19284C3.60693 3.92617 3.88962 3.77175 4.1967 3.75215Z" fill="currentColor"/>
</svg>
