<svg fill="none" xmlns="http://www.w3.org/2000/svg" viewBox="0 0 42 27"><path fill-rule="evenodd" clip-rule="evenodd" d="M12.45 11h-1.22L16.02.42h1.1L21.92 11h-1.27L19.4 8.22h-5.72L12.45 11Zm4.1-9.2-2.4 5.36h4.79L16.56 1.8ZM4.73 11H3.54V1.6H0V.5h8.27v1.1H4.73V11ZM33.87.5l-3.21 4.32L27.44.5h-1.4l3.87 5.14L25.9 11h1.37l3.36-4.53L33.98 11h1.4l-4.01-5.36L35.24.5h-1.38ZM41.85 11h-1.19V.5h1.19V11ZM14.8 17.2H10V22h4.8v4.8h4.8V22h4.8v4.8h4.8V22H34v-4.8h-4.8V22h-4.8v-4.8h-4.8V22h-4.8v-4.8Z" fill="currentColor"/></svg>
