<svg fill="none" xmlns="http://www.w3.org/2000/svg" viewBox="0 0 39 48"><path d="M.5 1C.5.72.72.5 1 .5h35A2.5 2.5 0 0 1 38.5 3v42a2.5 2.5 0 0 1-2.5 2.5H1a.5.5 0 0 1-.5-.5V1ZM12 39h16M9 33h22" stroke="#AC7644"/><path fill-rule="evenodd" clip-rule="evenodd" d="M23.63 13.72c-.3-.28-.76-.27-1.01-.2.16-.2.56-.37.67-.39.09.04.34.3.34.59Zm1-1.13c-.2-1.1-2.75-.37-4.04-.84-.02.32.4.83.8 1.02-.68.6-1.3 1.8-1.42 3.26a4.98 4.98 0 0 0-1.43-3.26c.4-.19.82-.7.8-1.02-1.28.47-3.83-.26-4.03.84-.05.23.06.58.18.68.03-.07.14-.31.5-.37 1.79-.27 3.28 2.5 1.93 3.61-.02.02 0 .05.02.05H22c.03 0 .04-.03.02-.05-1.35-1.11.15-3.88 1.94-3.6.35.05.47.29.49.36.12-.1.23-.45.19-.68Zm.43-2.52c-.03-.1 1.02-.1 1.02.55 0 .45-.63.65-.63 1.11 0 .22.23.37.3.37-.16-.73.5-.35.69-.21-.36-.99.45-.98.37-1.44-.06-.31-.76-.22-1.01-.38-.45-.28-.99-1.39-1.34-.28.66.6.27 1.5-.56 1.5v.15c1-.05 1.34-.78 1.16-1.37Zm-11.6 1.82c.19-.14.86-.52.7.21.07 0 .3-.15.3-.37 0-.46-.63-.66-.63-1.1 0-.66 1.05-.66 1.02-.56-.19.59.16 1.32 1.15 1.37.01-.01 0-.14 0-.14-.83 0-1.2-.9-.55-1.51-.35-1.1-.89 0-1.34.28-.25.16-.96.07-1.01.38-.08.46.73.45.37 1.44Zm2.83 1.83c.31-.28.76-.27 1.02-.2-.17-.2-.56-.37-.68-.39a.75.75 0 0 0-.34.59Zm4.15-6.13L19.95 7l-.48.6.48.61.49-.62Zm2.77 1.79-.35-.42-.34.42.34.4.35-.4ZM26 21.52l-.44-.46-.44.46.44.4.43-.4ZM17.38 9.38l-.34-.42-.35.42.35.4.34-.4Zm-.99 2.06h1.29c1.08 0 1.57-.67 1.71-1.24h1.1c.15.57.64 1.24 1.72 1.24h1.28s.23-.3.29-.46c.2-.54-.06-.8-.44-.8l-.49.45-.49-.45c-.38 0-.64.26-.43.8.02.07.08.17.14.26-.45-.06-1.04-.37-1.16-1.04 0 0 .33-.54.42-.75.3-.78-.09-1.1-.65-1.1l-.74.86-.73-.86c-.57 0-.95.32-.65 1.1.08.21.42.75.42.75-.13.67-.7.98-1.17 1.04.06-.09.13-.19.15-.26.2-.54-.05-.8-.43-.8l-.5.45-.48-.45c-.38 0-.64.26-.44.8.06.15.28.46.28.46Zm13.3 3.98c-.25.13-1.7.81-3.57.56l.05-.27a8.45 8.45 0 0 0 2.89-.72c.73-.4 1.05-1.38.68-2.1 0-.02-.03-.03-.05-.01a6.8 6.8 0 0 1-3.48 2.05l-.03-.31a8.74 8.74 0 0 0 2.38-1.77c.69-.88.62-2-.03-2.58a.03.03 0 0 0-.04 0c-.21.35-2.14 3.47-4.26 4.82l-.08.04a.1.1 0 0 0-.02.17c.25.22.4.53.4.87 0 .6-.46 1.09-1.07 1.2-.3.06-.75.04-1.18-.1-.02 0-.04 0-.04.02v1.89c0 .03.05.04.06 0 .26-.68 1.04-.83 1.38-.83.12.74.34 1.35.62 1.68.47.53 1.22.52 1.55.15v-.04c-.2-.1-1.3-.78-1.52-1.9.08-.02.17-.06.25-.1a3.6 3.6 0 0 0 1.29 1.32c.7.33 1.34.17 1.62-.32.01-.02 0-.04-.02-.04-.43-.04-1.76-.42-2.33-1.35l.2-.18c.58.45 1.42.85 2.02.93.7.1 1.5-.13 1.51-.95 0-.01-.01-.03-.03-.03a6.2 6.2 0 0 1-3.07-.58l.11-.24s1.78.42 2.62.28c.83-.14 1.32-.76 1.23-1.54 0-.02-.02-.03-.04-.02ZM14.02 16.7l.11.24c-1.17.67-2.82.6-3.07.58-.02 0-.04.02-.03.03.01.82.8 1.04 1.5.95.6-.08 1.44-.48 2.04-.93l.18.18c-.56.93-1.89 1.31-2.32 1.35-.02 0-.04.02-.03.04.29.49.93.65 1.63.32.41-.2.93-.73 1.29-1.32.08.04.16.08.25.1-.22 1.12-1.32 1.8-1.51 1.9a.03.03 0 0 0-.01.04c.33.37 1.08.38 1.54-.15.29-.33.5-.94.63-1.68.34 0 1.12.15 1.38.84 0 .03.05.02.05-.01v-1.89c0-.02-.02-.03-.03-.02-.43.14-.88.16-1.19.1-.6-.11-1.06-.6-1.06-1.2 0-.34.15-.65.4-.87a.1.1 0 0 0-.02-.17 4.3 4.3 0 0 1-.08-.04c-2.12-1.35-4.05-4.47-4.26-4.81a.03.03 0 0 0-.04-.01c-.66.57-.72 1.7-.03 2.58.45.58 1.4 1.22 2.38 1.77-.02.1-.03.2-.03.31a6.8 6.8 0 0 1-3.49-2.05c0-.02-.04-.01-.05 0-.37.73-.04 1.7.69 2.11.64.36 1.65.57 2.9.72 0 .09.02.18.04.27a6.42 6.42 0 0 1-3.57-.56c-.02 0-.04 0-.04.02-.1.78.4 1.4 1.23 1.54.84.14 2.62-.28 2.62-.28Zm11.55 5.82-.65-.5c-.26.15-.45.39-.52.68-.4.05-1.45-.19-1.35-.34 1.16-1.64.27-2.61-.8-2.56v1.1c0 .35-.3.64-.68.64h-.74c-.53 0-.88.53-.88.53s-.34-.53-.87-.53h-.74c-.38 0-.69-.29-.69-.64v-1.1c-1.06-.05-1.95.92-.8 2.56.11.15-.98.4-1.5.34a.76.76 0 0 0-.8-.18s-2.02-1.9-2.06-1.92l.02-.04c.11-.22-.06-.45-.17-.43.13-.16.13-.83-.58-.99l.03.41s-.55-.3-.83-.04c-.24.3.1.81.1.81h-.42c.2.69.89.64 1.03.5 0 .11.24.27.45.14l.1-.04 1.97 1.87a.64.64 0 0 0-.1.47c.04.28.27.5.56.56.2.04.4 0 .55-.09l.52.48c.05.05.1.07.18.07.13-.01.22-.11.21-.23a.2.2 0 0 0-.07-.14l-.53-.49a3.7 3.7 0 0 1 1.9-.51c.11 0 .17-.1.13-.2-.3-.72.34-1.24 1-.81.3.18.6.55.82 1.16-1.1.26-2.47 1-2.75 1.8-.1.3.25.72.68.8h.02l.01-.02c.23-1.19 1.5-2.08 2.17-2.23l.06.15a3.03 3.03 0 0 0-1.63 1.93c-.1.4.35.75.7.85.03 0 .04-.01.05-.03.06-1.09.55-2.01.98-2.43l.02.25s-.44 1.22-.44 2.12c0 .42.62.7.71.75.12-.04.74-.33.74-.75 0-.9-.44-2.12-.44-2.12l.02-.25c.43.42.91 1.34.98 2.43 0 .02.02.03.04.03.36-.1.8-.46.71-.85-.2-.86-.9-1.58-1.63-1.93l.06-.15c.66.15 1.94 1.04 2.17 2.23a.03.03 0 0 0 .03.02c.43-.08.79-.5.68-.8-.28-.8-1.66-1.54-2.75-1.8.22-.61.52-.98.81-1.16.67-.43 1.31.1 1.01.81-.04.1.02.2.13.2.75 0 1.68.27 2.04.63.24.35.67.58 1.16.53.55-.05 1-.47 1.06-.98a1.1 1.1 0 0 0-.55-1.08l-.64.51Zm-4.77-3.28c.23-.09.59-.02.58.32 0 .07.1.07.1 0 .08-.5-.26-.65-.61-.59l-.12-.47c-.04-.12-.05-.34.09-.34.08 0 .05.2.04.3 0 .08.02.12.08.13.04 0 .1-.05.12-.09.2-.23.25-.58.02-.75-.2-.14-.7-.04-.83.17a.93.93 0 0 0-.17-.26c-.04-.05-.06-.1 0-.14.04-.02.13-.11.13-.2 0-.06-.04-.16-.18-.16-.1 0-.22.07-.22.24 0 .03 0 .07.03.12a1.2 1.2 0 0 0-.35.01l1.3 3.57c.37-.19.65-.48.65-.79 0-.27-.4-.18-.58.03l-.18-.96c-.02-.08.03-.11.1-.14Zm-1.84-2.42.27.76c-.23.05-.6.22-.6.45 0 .3.53.5.83.47a.2.2 0 0 0 .05.19c-.1 0-.32.05-.39.12-.16-.15-.42-.2-.54-.11-.12.1-.12.25 0 .43.1.12.13.24.03.39.37 0 .23-.49.38-.49-.02.1-.01.2.03.32.03.08.03.14-.02.22-.12.19-.3.63-.28 1.02-.12 0-.18-.03-.14-.2.02-.05-.02-.1-.07-.02a.64.64 0 0 0-.09.29c0 .35.43.42.59.35.46.45 1.37.33 1.68.17l-1.6-4.4c-.04-.09-.16-.05-.13.04Zm-.06 3.63c-.03-.18.22-.5.55-.82-.07.2-.03.56.1.68-.23 0-.5.04-.65.14Z" fill="#AC7644"/></svg>
