<svg fill="none" xmlns="http://www.w3.org/2000/svg" viewBox="0 0 18 18"><path d="M15.73 3.74a1 1 0 0 0-.46-.61L12.55 1.5a1 1 0 0 0-1.37.35L6.65 9.43a1 1 0 0 0-.14.6l.22 2.73a1 1 0 0 0 1.4.83l2.51-1.1a1 1 0 0 0 .45-.41l4.53-7.58a1 1 0 0 0 .11-.76Zm-2.4.74-3.76 6.3a.46.46 0 0 1-.21.18l-.66.29a.11.11 0 0 1-.16-.1l-.06-.71c-.01-.1.01-.2.06-.28l3.76-6.3a.19.19 0 0 1 .25-.06l.72.43a.19.19 0 0 1 .06.25Z" fill="#366EFF"/><path d="M12.81 16.64H5.19a3.12 3.12 0 0 1-3.12-3.12V5.9a3.13 3.13 0 0 1 3.12-3.13h2.52a1 1 0 0 1 0 2H5.19A1.13 1.13 0 0 0 4.07 5.9v7.62a1.12 1.12 0 0 0 1.12 1.12h7.62a1.12 1.12 0 0 0 1.12-1.12V9.71a1 1 0 0 1 2 0v3.81a3.12 3.12 0 0 1-3.12 3.12Z" fill="#366EFF"/></svg>