<svg width="24" height="24" viewBox="0 0 24 24" fill="none" xmlns="http://www.w3.org/2000/svg"><path d="m23.467 18.944-3.707-3.708c-.739-.735-1.961-.713-2.726.052l-1.867 1.867-.369-.205c-1.18-.653-2.793-1.55-4.492-3.25-1.704-1.703-2.6-3.32-3.256-4.5l-.2-.36L8.102 7.59l.616-.617c.765-.766.786-1.988.05-2.726L5.06.538c-.736-.737-1.96-.714-2.725.051L1.291 1.64l.029.028c-.35.447-.643.963-.861 1.52-.201.528-.326 1.033-.383 1.54-.49 4.058 1.365 7.767 6.398 12.8 6.956 6.956 12.563 6.43 12.805 6.405a6.264 6.264 0 0 0 1.544-.388 6.02 6.02 0 0 0 1.513-.858l.023.02 1.059-1.036c.764-.765.785-1.988.05-2.727Z" fill="currentColor"/></svg>