<svg width="16" height="23" viewBox="0 0 16 23" fill="none" xmlns="http://www.w3.org/2000/svg">
<mask id="mask0_0:198" style="mask-type:alpha" maskUnits="userSpaceOnUse" x="0" y="0" width="16" height="23">
<path fill-rule="evenodd" clip-rule="evenodd" d="M0 0H16V23H0V0Z" fill="white"/>
</mask>
<g mask="url(#mask0_0:198)">
<path fill-rule="evenodd" clip-rule="evenodd" d="M8.03993 11.4973C6.10477 11.5057 4.52533 9.952 4.5082 8.02301C4.49075 6.05486 6.07049 4.45461 8.03166 4.45384C9.94219 4.45308 11.5137 6.03797 11.5261 7.97771C11.5383 9.90057 9.96484 11.4888 8.03993 11.4973ZM8.40575 0.00716399C5.33318 -0.107842 2.88317 1.16229 1.2664 3.78362C-0.366121 6.43059 -0.430993 9.22159 1.13406 11.9289C2.61542 14.4916 4.21566 16.9852 5.77581 19.5018C6.4839 20.644 7.22076 21.7683 8.00826 23C8.20272 22.7156 8.30875 22.5724 8.40239 22.4216C10.5975 18.8876 12.8798 15.4043 14.964 11.8055C17.8992 6.73737 14.2475 0.225813 8.40575 0.00716399Z" fill="currentColor"/>
</g>
</svg>
