<svg fill="none" xmlns="http://www.w3.org/2000/svg" viewBox="0 0 18 18"><path d="M11.48 7.19h-5a1 1 0 0 0 0 2h5a1 1 0 1 0 0-2ZM11.48 10.25h-5a1 1 0 0 0 0 2h5a1 1 0 0 0 0-2Z" fill="#989898"/><path d="M12.82 2.08h-.34v-.43a1 1 0 0 0-2 0v.43h-3v-.43a1 1 0 1 0-2 0v.43h-.3A2.88 2.88 0 0 0 2.31 5v9.53a2.87 2.87 0 0 0 2.87 2.87h7.64a2.87 2.87 0 0 0 2.87-2.87V5a2.88 2.88 0 0 0-2.87-2.92Zm.87 12.4a.87.87 0 0 1-.87.87H5.18a.87.87 0 0 1-.87-.87V5a.87.87 0 0 1 .87-.87h.34v.43a1 1 0 0 0 2 0v-.48h3v.43a1 1 0 1 0 2 0v-.43h.34a.87.87 0 0 1 .87.87l-.04 9.53Z" fill="#989898"/></svg>