<svg fill="none" xmlns="http://www.w3.org/2000/svg" viewBox="0 0 39 32"><path fill-rule="evenodd" clip-rule="evenodd" d="M1.34 12.5c0-6.63 5.41-12 12.08-12s12.08 5.37 12.08 12-5.4 12-12.08 12c-2.55 0-4.92-.79-6.88-2.13L1.17 24.3l-1 .36.36-1 2.1-5.76a11.89 11.89 0 0 1-1.29-5.41Zm12.08-11a11.04 11.04 0 0 0-11.08 11c0 1.86.47 3.6 1.29 5.14l.1.2-.08.2L1.84 23l4.61-1.66.25-.1.21.16a11.08 11.08 0 0 0 6.51 2.1c6.12 0 11.08-4.93 11.08-11s-4.96-11-11.08-11Zm23.42 18a10 10 0 0 0-9.05-9.96l.1-1a11 11 0 0 1 8.42 16.57l1.84 5.06.36 1-1-.36-5.06-1.84a10.98 10.98 0 0 1-14.4-2.86l.79-.6a9.99 9.99 0 0 0 13.29 2.48l.2-.13.23.08 4.28 1.56-1.56-4.28-.08-.23.13-.2a9.95 9.95 0 0 0 1.51-5.29ZM8.5 14a1.5 1.5 0 1 0 0-3 1.5 1.5 0 0 0 0 3Zm6.5-1.5a1.5 1.5 0 1 1-3 0 1.5 1.5 0 0 1 3 0Zm3.5 1.5a1.5 1.5 0 1 0 0-3 1.5 1.5 0 0 0 0 3Z" fill="currentColor"/></svg>
