<svg width="180" height="180" viewBox="0 0 180 180" fill="none" xmlns="http://www.w3.org/2000/svg">
<g>
<mask id="mask0_147:68" style="mask-type:alpha" maskUnits="userSpaceOnUse" x="0" y="0" width="180" height="180">
<path fill-rule="evenodd" clip-rule="evenodd" d="M0 0H180V180H0V0Z" fill="currentColor"/>
</mask>
<g mask="url(#mask0_147:68)">
<path fill-rule="evenodd" clip-rule="evenodd" d="M12.7774 69.3075C10.0174 69.798 8.1451 71.5351 7.88424 74.9338C3.34642 72.1175 -2.40061 77.9196 1.05749 84.6994C2.05651 83.1142 3.39834 82.6476 4.56751 82.9785C6.10202 83.4151 7.38754 85.3781 7.13607 87.6996C5.76546 100.33 14.1536 107.28 22.3372 108.13C15.6737 112.958 11.8847 123.17 19.387 133.422C20.7664 135.31 20.6338 137.65 19.5228 138.796C18.6777 139.669 17.2827 139.933 15.6231 139.061C16.0197 146.662 23.898 148.812 26.419 144.104C28.3438 146.919 30.8342 147.484 33.4697 146.53C32.5163 149.166 33.08 151.657 35.8956 153.581C31.187 156.101 33.3371 163.981 40.9376 164.376C40.0668 162.717 40.3308 161.322 41.2035 160.477C42.3483 159.365 44.6904 159.233 46.5777 160.613C56.83 168.115 67.041 164.326 71.8691 157.661C72.7192 165.848 79.6692 174.233 92.2993 172.863C94.622 172.612 96.5844 173.898 97.0204 175.431C97.3519 176.602 96.8846 177.942 95.3007 178.943C102.081 182.4 107.881 176.652 105.064 172.115C108.465 171.855 110.201 169.982 110.691 167.221C112.496 169.366 114.937 170.121 118.01 168.647C117.84 173.984 125.739 176.06 129.879 169.677C128.009 169.602 126.933 168.674 126.636 167.496C126.247 165.949 127.303 163.854 129.441 162.911C141.064 157.783 142.888 147.045 139.531 139.532C147.045 142.888 157.784 141.064 162.913 129.439C163.856 127.302 165.95 126.247 167.497 126.636C168.675 126.933 169.602 128.008 169.678 129.881C176.061 125.739 173.984 117.84 168.647 118.01C170.122 114.936 169.366 112.496 167.223 110.69C169.982 110.201 171.856 108.465 172.116 105.064C176.652 107.882 182.4 102.081 178.943 95.3008C177.942 96.8847 176.602 97.3526 175.433 97.0192C173.898 96.585 172.613 94.622 172.864 92.2981C174.233 79.6687 165.847 72.7193 157.662 71.8692C164.326 67.0411 168.115 56.8301 160.614 46.5766C159.233 44.6905 159.365 42.3484 160.477 41.2043C161.321 40.3323 162.717 40.067 164.376 40.9378C163.981 33.3379 156.101 31.186 153.582 35.8946C151.656 33.0814 149.167 32.5153 146.531 33.4686C147.485 30.8338 146.919 28.3441 144.106 26.4173C148.813 23.8976 146.662 16.0193 139.061 15.6233C139.934 17.2829 139.668 18.6785 138.796 19.5231C137.651 20.634 135.31 20.7673 133.423 19.3867C123.17 11.8856 112.958 15.674 108.13 22.3374C107.281 14.1533 100.331 5.76514 87.7008 7.13511C85.3781 7.38784 83.4163 6.10106 82.9797 4.56657C82.6475 3.39865 83.1142 2.05682 84.6993 1.05718C77.9195 -2.40028 72.1168 3.34673 74.935 7.88328C71.5351 8.14539 69.7991 10.0164 69.3087 12.7764C67.5027 10.6332 65.0642 9.87881 61.989 11.352C62.1585 6.01536 54.2614 3.93976 50.119 10.3223C51.9907 10.3968 53.0654 11.3251 53.3631 12.5018C53.7522 14.0494 52.6975 16.145 50.5587 17.0865C38.9346 22.2155 37.1117 32.9551 40.4666 40.4674C32.9561 37.1113 22.2152 38.9354 17.0875 50.5583C16.1454 52.6971 14.0491 53.753 12.5034 53.362C11.3248 53.0661 10.3971 51.9896 10.3202 50.1185C3.93945 54.2616 6.01444 62.1593 11.3523 61.9891C9.87915 65.0631 10.6336 67.504 12.7774 69.3075M87.4224 87.4237C84.1007 86.1601 79.536 86.3146 75.3985 86.0869C79.0937 87.9579 82.9703 90.3764 86.4797 90.9425C83.726 93.1882 81.5759 97.2206 79.3101 100.69C82.7795 98.4242 86.8119 96.2735 89.0564 93.5192C89.6238 97.0298 92.0409 100.906 93.9132 104.602C93.6855 100.465 93.8394 95.8994 92.5758 92.5771C95.8994 93.8394 100.464 93.6856 104.603 93.912C100.906 92.041 97.0285 89.6251 93.5191 89.0564C96.2754 86.8107 98.4242 82.7802 100.689 79.3108C97.22 81.576 93.1895 83.7254 90.9424 86.4797C90.3763 82.9704 87.9585 79.0938 86.0875 75.3967C86.3145 79.536 86.1607 84.1007 87.4224 87.4237M67.1317 83.8724C66.8483 83.6322 66.5887 83.3657 66.3573 83.0704L66.3197 83.0185C52.4755 69.0661 41.8197 74.778 27.0896 73.1428C40.6636 79.0925 47.0337 89.3654 66.0013 84.2033L66.0601 84.1789C66.4067 84.0388 66.7651 83.9375 67.1317 83.8724M67.604 70.6237C67.8242 81.9069 77.4923 78.9912 80.1584 80.1597C78.9911 77.4923 81.9056 67.8231 70.6242 67.6041C75.3985 62.863 72.7167 55.4458 68.3184 54.388C64.941 53.5772 62.0347 55.9894 62.4131 58.1432C63.07 61.8947 67.1962 60.337 66.9472 57.6846C69.704 60.5497 67.1011 63.5662 63.9382 63.9396C63.566 67.1012 60.5496 69.7041 57.6845 66.9473C60.3369 67.1963 61.8939 63.0713 58.143 62.4132C55.9892 62.0354 53.5771 64.9418 54.3891 68.3173C55.4456 72.7168 62.8629 75.3992 67.604 70.6237M83.0197 66.3186L83.0704 66.358C83.3657 66.5882 83.6334 66.8472 83.8717 67.1318C83.9374 66.7659 84.0388 66.4068 84.1801 66.059L84.2045 66.0002C89.3654 47.0339 79.0924 40.6638 73.1427 27.0898C74.7773 41.8198 69.066 52.4731 83.0197 66.3186M95.581 60.9163C85.9217 66.7484 93.2789 73.662 93.6017 76.5559C95.3283 74.2113 105.16 71.9023 99.7084 62.0223C106.201 63.787 111.282 57.7547 109.999 53.4165C109.014 50.0885 105.473 48.7754 103.793 50.1811C100.876 52.6257 104.286 55.4182 106.459 53.8769C105.357 57.6972 101.442 56.9509 99.5395 54.4005C96.615 55.6572 92.8517 54.3479 93.8075 50.4882C94.9173 52.9098 99.2687 52.1954 97.9625 48.619C97.2137 46.5628 93.4891 45.9266 90.9712 48.3182C87.6908 51.4334 89.0758 59.1985 95.581 60.9163M107.017 72.1138L107.01 72.177C106.959 72.5492 106.866 72.9089 106.741 73.2592C107.091 73.1328 107.451 73.0409 107.822 72.9889L107.885 72.9814C126.892 67.9682 127.272 55.8849 136.054 43.9461C124.114 52.7271 112.031 53.1074 107.017 72.1138M117.978 80.2917C108.098 74.8412 105.788 84.6706 103.443 86.3972C106.337 86.72 113.252 94.0784 119.083 84.4179C120.802 90.9243 128.566 92.3087 131.681 89.0276C134.072 86.5098 133.436 82.7852 131.38 82.0364C127.805 80.7315 127.089 85.0816 129.512 86.1926C125.652 87.1485 124.342 83.3839 125.6 80.4606C123.048 78.557 122.302 74.6423 126.123 73.5407C124.581 75.7126 127.375 79.1232 129.818 76.2056C131.225 74.5272 129.913 70.9872 126.583 70C122.244 68.717 116.213 73.7978 117.978 80.2917M113.999 95.7949L113.94 95.8187C113.592 95.9601 113.235 96.0627 112.868 96.1284C113.153 96.3667 113.41 96.6332 113.641 96.9285L113.682 96.9804C127.526 110.933 138.179 105.221 152.909 106.855C139.336 100.908 132.965 90.6335 113.999 95.7949M112.395 109.375C112.176 98.0932 102.508 101.009 99.8404 99.8417C101.009 102.508 98.0932 112.176 109.375 112.395C104.6 117.136 107.282 124.553 111.681 125.61C115.058 126.422 117.965 124.011 117.587 121.854C116.929 118.106 112.804 119.663 113.054 122.316C110.295 119.449 112.9 116.434 116.06 116.062C116.434 112.9 119.45 110.296 122.316 113.052C119.663 112.804 118.106 116.929 121.856 117.586C124.011 117.965 126.422 115.058 125.611 111.68C124.554 107.283 117.137 104.599 112.395 109.375M96.981 113.68L96.9284 113.642C96.6344 113.411 96.3679 113.152 96.1277 112.868C96.0627 113.235 95.9601 113.592 95.8199 113.939L95.7962 113.997C90.6334 132.965 100.908 139.336 106.856 152.909C105.221 138.179 110.933 127.525 96.981 113.68M84.4172 119.083C94.0796 113.251 86.7199 106.337 86.3971 103.443C84.6718 105.786 74.8418 108.097 80.2916 117.978C73.799 116.211 68.7169 122.244 70.0018 126.582C70.9883 129.912 74.5284 131.224 76.2055 129.817C79.125 127.374 75.7125 124.581 73.5406 126.123C74.6428 122.3 78.557 123.048 80.4612 125.598C83.3838 124.342 87.1484 125.652 86.1944 129.512C85.0816 127.09 80.7314 127.805 82.0351 131.381C82.7851 133.436 86.5103 134.072 89.0276 131.681C92.3087 128.565 90.9243 120.801 84.4172 119.083M72.982 107.884L72.9901 107.821C73.042 107.45 73.1321 107.09 73.2591 106.741C72.9088 106.866 72.5503 106.958 72.1781 107.009L72.1143 107.018C53.1073 112.031 52.7263 124.114 43.9472 136.053C55.8854 127.271 67.9681 126.892 72.982 107.884M62.0221 99.7084C71.9035 105.158 74.2124 95.327 76.5558 93.6017C73.662 93.2789 66.7489 85.9205 60.9162 95.581C59.1984 89.0758 51.4333 87.6908 48.3174 90.9713C45.9271 93.4879 46.5627 97.2137 48.6176 97.9638C52.194 99.2674 52.909 94.9173 50.4887 93.8063C54.3478 92.8517 55.6571 96.615 54.4016 99.5383C56.9501 101.442 57.6989 105.355 53.8767 106.459C55.4206 104.286 52.6256 100.876 50.1809 103.793C48.7765 105.472 50.0883 109.014 53.4169 109.998C57.7546 111.282 63.7881 106.2 62.0221 99.7084M105.414 32.4765C107.134 42.7031 122.616 47.5737 126.489 35.8764C129.279 27.4551 119.247 26.0364 117.617 29.2699C125.452 27.9706 123.836 36.7347 117.524 35.7776C110.666 34.7435 110.107 22.5132 120.842 20.5721C126.376 19.7526 131.327 23.3458 133.059 30.2132C138.513 25.4296 141.031 31.8328 138.084 35.5067C125.541 52.6877 109.163 42.4254 101.738 46.1919C97.1912 39.2169 77.8764 39.9175 75.6049 18.7674C74.8893 14.1095 80.271 9.82564 82.6025 16.693C87.5369 11.6122 93.6186 10.9767 98.0025 14.4529C106.33 21.5004 99.7303 31.8122 93.2758 29.2818C87.3298 26.9522 90.3106 18.5534 96.4474 23.5986C96.6526 19.9835 87.2579 16.1963 85.4607 24.8828C82.9665 36.9505 98.8101 40.4724 105.414 32.4765M57.9297 57.9305C49.616 58.3796 40.5642 75.4568 21.1123 66.8491C16.7215 65.1413 15.7025 58.3371 22.8151 59.7527C20.8815 52.9392 23.3744 47.3542 28.5747 45.2948C38.8432 41.6084 44.4745 52.4775 39.0522 56.8039C34.0633 60.7887 28.2819 54.0076 35.7186 51.2164C32.6909 49.229 24.7118 55.4733 31.3365 61.3723C40.541 69.5659 51.5127 57.6064 47.8895 47.8909C57.6063 51.5129 69.5658 40.5412 61.3722 31.3367C55.4731 24.7121 49.2294 32.6898 51.2162 35.7188C54.0075 28.2821 60.7885 34.0635 56.8037 39.0524C52.4786 44.4735 41.6082 38.8434 45.294 28.5749C47.354 23.3746 52.939 20.8818 59.7526 22.8154C58.3382 15.7015 65.1412 16.7212 66.8502 21.112C75.4561 40.5643 58.3795 49.6162 57.9297 57.9305M147.524 74.586C139.527 81.1888 143.049 97.0317 155.117 94.5394C163.804 92.7428 160.016 83.3469 156.401 83.5521C161.446 89.6895 153.048 92.6703 150.719 86.7243C148.187 80.2686 158.497 73.6708 165.546 81.9964C169.023 86.3803 168.388 92.4626 163.307 97.3964C170.175 99.7291 165.89 105.11 161.233 104.395C140.083 102.123 140.785 82.8077 133.807 78.2612C137.576 70.8364 127.313 54.4593 144.494 41.9162C148.168 38.9686 154.569 41.4852 149.788 46.9407C156.654 48.6735 160.246 53.6229 159.428 59.156C157.486 69.8924 145.256 69.3338 144.221 62.4752C143.266 56.1639 152.028 54.5462 150.729 62.382C153.964 60.753 152.544 50.7228 144.123 53.5103C132.427 57.3838 137.297 72.8663 147.524 74.586M132.109 132.111C122.393 128.487 110.434 139.459 118.627 148.662C124.526 155.287 130.771 147.309 128.784 144.281C125.992 151.718 119.212 145.937 123.195 140.947C127.523 135.525 138.392 141.157 134.704 151.424C132.645 156.625 127.059 159.117 120.247 157.185C121.663 164.298 114.858 163.278 113.15 158.887C104.542 139.435 121.619 130.383 122.07 122.071C130.383 121.619 139.435 104.542 158.888 113.15C163.278 114.858 164.299 121.662 157.185 120.247C159.117 127.06 156.625 132.645 151.424 134.705C141.157 138.392 135.527 127.521 140.948 123.194C145.936 119.211 151.718 125.993 144.282 128.784C147.31 130.77 155.288 124.526 148.663 118.627C139.459 110.434 128.487 122.392 132.109 132.111M74.5872 147.523C72.865 137.296 57.3849 132.425 53.5101 144.122C50.722 152.544 60.7535 153.963 62.3831 150.728C54.5467 152.028 56.1631 143.266 62.4757 144.22C69.3324 145.258 69.8936 157.485 59.1565 159.427C53.624 160.245 48.6727 156.654 46.9405 149.787C41.4869 154.568 38.9684 148.167 41.9172 144.492C54.4604 127.311 70.8369 137.576 78.2617 133.806C82.807 140.782 102.123 140.083 104.395 161.233C105.11 165.89 99.7291 170.175 97.3964 163.307C92.4626 168.387 86.3796 169.022 81.9963 165.547C73.6695 158.499 80.2685 148.187 86.7243 150.719C92.6715 153.047 89.6888 161.447 83.5521 156.4C83.3475 160.016 92.7434 163.803 94.5388 155.117C97.0323 143.048 81.1893 139.526 74.5872 147.523M32.4769 105.413C40.4728 98.8089 36.9503 82.9672 24.8832 85.4607C16.1973 87.2561 19.9838 96.6526 23.5983 96.4474C18.5544 90.3094 26.9526 87.3286 29.2803 93.2746C31.8119 99.7303 21.4996 106.33 14.4526 98.0025C10.9764 93.6192 11.612 87.5369 16.6928 82.6025C9.82535 80.2711 14.1092 74.8894 18.7671 75.605C39.9161 77.8758 39.2167 97.1918 46.193 101.737C42.424 109.164 52.6888 125.54 35.5071 138.083C31.8326 141.032 25.4312 138.512 30.213 133.059C23.3462 131.327 19.7536 126.375 20.5719 120.843C22.5136 110.106 34.7421 110.668 35.7786 117.523C36.7345 123.836 27.9704 125.453 29.2709 117.616C26.0368 119.246 27.4562 129.278 35.8762 126.489C47.5748 122.615 42.703 107.134 32.4769 105.413" fill="currentColor"/>
</g>
</g>
</svg>
