<svg width="44" height="40" viewBox="0 0 44 40" fill="none" xmlns="http://www.w3.org/2000/svg">
<path fill-rule="evenodd" clip-rule="evenodd" d="M4.62349 7.30422C4.47617 7.14597 4.32645 6.98514 4.17297 6.82088H4.71807C5.47077 6.82088 6.22347 6.82108 6.97618 6.82129C9.48519 6.82197 11.9942 6.82265 14.5032 6.81575C14.7821 6.81446 15.0825 6.79266 15.3335 6.6862C15.8317 6.47327 16.0815 5.92173 15.9762 5.41507C15.8647 4.88661 15.3804 4.51207 14.7846 4.51079C12.1702 4.50791 9.55502 4.50718 6.94021 4.50646C6.06845 4.50622 5.19673 4.50598 4.32509 4.50566H3.86746L3.76731 4.32609C4.02031 4.08462 4.27467 3.84454 4.52904 3.60446C5.08403 3.08066 5.63901 2.55685 6.17969 2.01857C6.64366 1.55424 6.64366 0.809011 6.2342 0.3806C5.77784 -0.096553 5.07048 -0.140164 4.5913 0.335706C3.16137 1.75819 1.74158 3.19093 0.336998 4.63906C-0.130772 5.12134 -0.100348 5.77422 0.358548 6.2719C0.579387 6.51124 0.810105 6.74212 1.0407 6.97288C1.10793 7.04016 1.17515 7.10743 1.24211 7.17489C1.52799 7.46416 1.81356 7.75366 2.09908 8.04312C2.95557 8.91143 3.8117 9.77937 4.67497 10.6394C5.15795 11.1191 5.88686 11.114 6.32674 10.6612C6.76662 10.211 6.75141 9.54013 6.28111 9.03348C6.16728 8.91014 6.04702 8.79259 5.92679 8.67506C5.82071 8.57137 5.71465 8.4677 5.61304 8.36008C5.28492 8.01469 4.96048 7.66619 4.62349 7.30422ZM36.5662 4.17912C36.4032 4.01491 36.2442 3.85413 36.0877 3.69593C35.7296 3.3339 35.3848 2.98536 35.0361 2.63992C34.9282 2.53234 34.8156 2.42871 34.7029 2.32506L34.7028 2.32493C34.575 2.2074 34.4473 2.08986 34.3263 1.96652C33.8266 1.45986 33.8105 0.789029 34.2778 0.338813C34.7452 -0.113969 35.5197 -0.1191 36.0328 0.360618C36.9622 1.23296 37.8837 2.11198 38.8058 2.99146L38.8064 2.99201L38.8067 2.99228C39.0977 3.26991 39.3888 3.54758 39.6803 3.82511C39.7492 3.89046 39.8184 3.95563 39.8876 4.02082C40.1348 4.25373 40.3823 4.48686 40.619 4.72939C41.1066 5.22578 41.1389 5.87866 40.6419 6.36094C39.1496 7.80907 37.641 9.24181 36.1217 10.6643C35.6126 11.1402 34.861 11.0966 34.3762 10.6194C33.9411 10.1923 33.9411 9.44576 34.4341 8.98143C35.0085 8.44321 35.5981 7.91945 36.1877 7.3957L36.1879 7.39553C36.4582 7.15546 36.7284 6.91538 36.9972 6.67391L36.8908 6.49434H36.4046L33.626 6.49354H33.6256C30.8475 6.49282 28.069 6.49209 25.2913 6.48921C24.6583 6.48793 24.1438 6.11339 24.0252 5.58493C23.9134 5.07827 24.1788 4.52673 24.7081 4.3138C24.9748 4.20734 25.294 4.18554 25.5903 4.18425C28.3628 4.1781 31.1353 4.17851 33.9077 4.17892L35.9871 4.17912H36.5662ZM25.1934 39.7317L25.1933 39.7316C25.0239 39.5386 24.8545 39.3457 24.7531 39.1223C24.4445 38.4444 24.1523 37.7592 23.8602 37.0741L23.8602 37.0739C23.5957 36.4536 23.3313 35.8333 23.0546 35.2185C22.8847 34.8405 22.6501 34.4741 22.3786 34.161C20.7713 32.3048 19.3235 30.343 18.3205 28.0844C17.6492 26.569 17.2008 24.9991 17.3221 23.3191C17.4157 22.017 17.6884 20.7579 18.6602 19.8025C18.9918 19.4767 19.4205 19.2263 19.8423 19.0233C20.5448 18.6848 20.7528 18.3057 20.5136 17.5532C19.082 13.0255 17.6492 8.50024 16.2094 3.97609C15.6975 2.3691 16.1204 1.13082 17.5186 0.384136C19.1085 -0.463417 20.9238 0.129059 21.4969 1.7917C22.0232 3.3195 22.51 4.85985 22.997 6.40075L22.997 6.40084L22.9974 6.40193C23.1722 6.95501 23.347 7.50815 23.5237 8.06081C24.1303 9.95882 24.7312 11.858 25.3297 13.7572C25.4626 14.1792 25.6371 14.5433 26.1293 14.6418C26.6042 14.7369 26.8931 14.4806 27.1716 14.1514C27.7875 13.4221 28.6229 13.1067 29.5334 12.978C31.0956 12.7589 32.339 13.3061 33.2425 14.6128C33.5511 15.0592 33.9578 15.1879 34.4882 15.0581C35.6194 14.7821 36.7495 14.7485 37.7524 15.4395C38.2031 15.7514 38.5832 16.1804 38.9403 16.6024C39.2315 16.9479 39.5238 17.1601 39.9987 17.1833C41.8337 17.2737 43.077 18.3555 43.6848 20.2605C44.1955 21.8628 44.0164 23.4443 43.6374 25.0316C42.9672 27.8293 41.9584 30.5111 40.7845 33.1268C40.3072 34.1866 40.1062 35.2753 39.9895 36.4046C39.9334 36.9446 39.8679 37.4838 39.8024 38.0231L39.8024 38.0232C39.7558 38.4068 39.7092 38.7904 39.6659 39.1745C39.6197 39.5907 39.3401 39.8122 39.0131 40H25.4199C25.3487 39.9086 25.271 39.8201 25.1934 39.7317Z" fill="#AC7644"/>
</svg>
