<svg width="158" height="137" viewBox="0 0 158 137" fill="none" xmlns="http://www.w3.org/2000/svg">
<path fill-rule="evenodd" clip-rule="evenodd" d="M139.24 3.45657V9.38491H137.776V3.45657C137.776 3.04927 138.104 2.71931 138.508 2.71931C138.912 2.71931 139.24 3.04927 139.24 3.45657ZM137.016 3.45657V9.38491H135.552V3.45657C135.552 3.04927 135.88 2.71931 136.284 2.71931C136.688 2.71931 137.016 3.04927 137.016 3.45657ZM134.792 3.45657V9.38491H133.328V3.45657C133.328 3.04927 133.656 2.71931 134.06 2.71931C134.464 2.71931 134.792 3.04927 134.792 3.45657ZM131.104 23.8549H132.568V10.1499H131.104V23.8549ZM132.568 25.8101V31.7385H131.104V25.8101C131.104 25.4028 131.431 25.0729 131.836 25.0729C132.241 25.0729 132.568 25.4028 132.568 25.8101H132.568H132.568ZM131.104 3.45657C131.104 3.04927 131.431 2.71931 131.836 2.71931C132.241 2.71931 132.568 3.04927 132.568 3.45657V9.38491H131.104V3.45657ZM130.344 3.45657V9.38491H128.88V3.45657C128.88 3.04927 129.207 2.71931 129.612 2.71931C130.016 2.71931 130.344 3.04927 130.344 3.45657ZM128.88 23.8549H130.344V10.1499H128.88V23.8549ZM130.344 25.8101V31.7385H128.88V25.8101C128.88 25.4028 129.207 25.0729 129.612 25.0729C130.016 25.0729 130.344 25.4028 130.344 25.8101ZM128.12 3.45657V9.38491H126.656V3.45657C126.656 3.04927 126.983 2.71931 127.388 2.71931C127.792 2.71931 128.12 3.04927 128.12 3.45657ZM126.656 23.8549H128.12V10.1499H126.656V23.8549ZM128.12 25.8101V31.7385H126.656V25.8101C126.656 25.4028 126.984 25.0729 127.388 25.0729C127.792 25.0729 128.12 25.4028 128.12 25.8101ZM124.432 23.8549H125.896V10.1499H124.432V23.8549ZM125.896 25.8101V31.7385H124.432V25.8101C124.432 25.4028 124.759 25.0729 125.164 25.0729C125.569 25.0729 125.896 25.4028 125.896 25.8101ZM124.432 3.45657C124.432 3.04927 124.759 2.71931 125.164 2.71931C125.569 2.71931 125.896 3.04927 125.896 3.45657V9.38491H124.432V3.45657ZM123.672 25.8101V31.7385H122.208V25.8101C122.208 25.4028 122.536 25.0729 122.94 25.0729C123.344 25.0729 123.672 25.4028 123.672 25.8101ZM121.449 25.8101V31.7385H119.984V25.8101C119.984 25.4028 120.312 25.0729 120.716 25.0729C121.12 25.0729 121.449 25.4028 121.449 25.8101ZM119.224 25.8101V31.7385H117.761V25.8101C117.761 25.4028 118.088 25.0729 118.492 25.0729C118.897 25.0729 119.224 25.4028 119.224 25.8101ZM123.672 1.50193V23.8549H122.913V1.5L119.929 4.55021V23.8549H117V64.5H117.761V32.5034H119.224V64.5H119.984V32.5034H121.449V64.5H122.208V32.5034H123.672V64.5H124.432V32.5034H125.896V64.5H126.656V32.5034H128.12V64.5H128.88V32.5034H130.344V64.5H131.104V32.5034H132.568V64.5H133.018H133.328V23.8549V10.1499H134.792V64.5H135.552V10.1499H137.016V64.5H137.776V10.1499H139.24V64.5H140V1.50193H123.672Z" fill="#B07237"/>
<mask id="mask0_0_2075" style="mask-type:alpha" maskUnits="userSpaceOnUse" x="0" y="0" width="158" height="137">
<path fill-rule="evenodd" clip-rule="evenodd" d="M0 136.5H158V0.5H0V136.5Z" fill="white"/>
</mask>
<g mask="url(#mask0_0_2075)">
<path fill-rule="evenodd" clip-rule="evenodd" d="M83.6141 57.6543H85.0918V17.1687H83.6141V57.6543ZM79.1247 57.6543H80.6024V17.1687H79.1247V57.6543ZM76.8794 57.6543H78.3571V17.1687H76.8794V57.6543ZM74.6353 57.6543H76.113V17.1687H74.6353V57.6543ZM72.39 57.6543H73.8677V17.1687H72.39V57.6543ZM72.39 10.46V10.4593C72.39 10.0517 72.7208 9.72094 73.1292 9.72094C73.5375 9.72094 73.8677 10.0517 73.8677 10.4593V10.46V16.4025H72.39V10.46ZM74.6353 10.46V10.4593C74.6353 10.0517 74.9655 9.72094 75.3739 9.72094C75.7822 9.72094 76.113 10.0517 76.113 10.4593V10.46V16.4025H74.6353V10.46ZM76.8794 10.46V10.4593C76.8794 10.0517 77.2108 9.72094 77.6185 9.72094C78.0263 9.72094 78.3577 10.0517 78.3577 10.4593V10.46V16.4025H76.8794V10.46ZM79.1247 10.46V10.4593C79.1247 10.0517 79.4549 9.72094 79.8632 9.72094C80.2716 9.72094 80.6018 10.0517 80.6018 10.4593V10.46V16.4025H79.1247V10.46ZM81.3694 57.655H82.8471V17.1694H81.3694V57.655ZM81.3694 10.46V10.4593C81.3694 10.0517 81.6996 9.72094 82.1079 9.72094C82.5163 9.72094 82.8471 10.0517 82.8471 10.4593L82.8465 10.46H82.8471V16.4025H81.3694V10.46ZM83.6141 10.46V10.4593C83.6141 10.0517 83.9449 9.72094 84.3526 9.72094C84.761 9.72094 85.0918 10.0517 85.0918 10.4593V10.46V16.4025H83.6141V10.46ZM85.8588 10.46V10.4593C85.8588 10.0517 86.189 9.72094 86.5973 9.72094C87.0057 9.72094 87.3359 10.0517 87.3359 10.4593V10.46V16.4025H85.8588V10.46ZM85.8581 57.655H87.3359V17.1694H85.8581V57.655ZM112.988 57.655H88.1035V17.1687V16.6067V8.5H71.6236V16.6067V17.1687V57.655H45.0117V26.8135L42 23.7566V64.5H44.7306H45.0117H45.0123V58.874H46.7065V64.5H49.7466V58.874H51.4408V64.5H54.4809V58.874H56.1751V64.5H59.2151V58.874H60.9093V64.5H63.9501V58.874H65.6443V64.5H68.6844V58.874H70.3785V64.5H73.4186V58.874H75.1128V64.5H78.1529V58.874H79.8477V64.5H82.8878V58.874H84.582V64.5H87.6221V58.874H89.3163V64.5H92.3564V58.874H94.0506V64.5H97.0907V58.874H98.7855V64.5H101.826V58.874H103.52V64.5H106.56V58.874H108.254V64.5H111.294V58.874H112.988V64.5H113.471H116V23.7566L112.988 26.8135V57.655Z" fill="#B07237"/>
<path fill-rule="evenodd" clip-rule="evenodd" d="M38.0162 25.5987V31.5595H36.5521V25.5987C36.5521 25.1892 36.8799 24.8574 37.2845 24.8574C37.6884 24.8574 38.0162 25.1892 38.0162 25.5987ZM38.7761 25.5987C38.7761 25.1892 39.1038 24.8574 39.5078 24.8574C39.9124 24.8574 40.2401 25.1892 40.2401 25.5987V31.5595H38.7761V25.5987ZM35.7922 25.5987V31.5595H34.3282V25.5987C34.3282 25.1892 34.6559 24.8574 35.0599 24.8574C35.4645 24.8574 35.7922 25.1892 35.7922 25.5987ZM33.5683 17.4666V23.4273H32.1042V17.4666C32.1042 17.0571 32.432 16.7253 32.8359 16.7253C33.2405 16.7253 33.5683 17.0571 33.5683 17.4666ZM33.5683 25.5987V31.5595H32.1036V25.5987C32.1036 25.1892 32.432 24.8574 32.8359 24.8574C33.2405 24.8574 33.5683 25.1892 33.5683 25.5987ZM31.3443 17.4666V23.4273H29.8803V17.4666C29.8803 17.0571 30.208 16.7253 30.6126 16.7253C31.0166 16.7253 31.3443 17.0571 31.3443 17.4666ZM31.3443 25.5987V31.5595H29.8803V25.5987C29.8803 25.1892 30.208 24.8574 30.6126 24.8574C31.0166 24.8574 31.3443 25.1892 31.3443 25.5987ZM29.1204 17.4666V23.4273H27.6563V17.4666C27.6563 17.0571 27.9834 16.7253 28.388 16.7253C28.7926 16.7253 29.1204 17.0571 29.1204 17.4666ZM29.1204 25.5987V31.5595H27.6563V25.5987C27.6563 25.1892 27.9834 24.8574 28.388 24.8574C28.7926 24.8574 29.1204 25.1892 29.1204 25.5987ZM26.8964 17.4666V23.4273H25.4317V17.4666C25.4317 17.0571 25.7601 16.7253 26.1641 16.7253C26.568 16.7253 26.8964 17.0571 26.8964 17.4666ZM26.8964 25.5987V31.5595H25.4317V25.5987C25.4317 25.1892 25.7601 24.8574 26.1641 24.8574C26.568 24.8574 26.8964 25.1892 26.8964 25.5987ZM24.6725 17.4666V23.4273H23.2084V17.4666C23.2084 17.0571 23.5362 16.7253 23.9401 16.7253C24.3447 16.7253 24.6725 17.0571 24.6725 17.4666ZM22.4485 17.4666V23.4273H20.9845V17.4666C20.9845 17.0571 21.3116 16.7253 21.7162 16.7253C22.1208 16.7253 22.4485 17.0571 22.4485 17.4666ZM20.2246 17.4666V23.4273H18.7599V17.4666C18.7599 17.0571 19.0883 16.7253 19.4922 16.7253C19.8962 16.7253 20.2246 17.0571 20.2246 17.4666ZM38.0712 18.5656L35.0868 15.5V23.6334H34.3282V15.5013H18V64.5H18.7599V24.1965H20.2246V64.5H20.9845V24.1965H22.4485V64.5H23.2084V24.1965H24.6725V64.5H24.9823H25.4317V32.3286H26.8964V64.5H27.6563V32.3286H29.1204V64.5H29.8803V32.3286H31.3443V64.5H32.1036V32.3286H33.5683V64.5H34.3282V32.3286H35.7922V64.5H36.5521V32.3286H38.0162V64.5H38.7761V32.3286H40.2401V64.5H41V23.6334H38.0712V18.5656Z" fill="#B07237"/>
<path fill-rule="evenodd" clip-rule="evenodd" d="M0 107.589L1.78568 105.531C5.83064 109.278 9.5605 111.019 14.9706 111.019C20.4868 111.019 24.2684 107.906 24.2684 103.684V103.578C24.2684 99.6721 22.2201 97.4028 13.8681 95.714C5.04261 93.9198 1.47124 90.9114 1.47124 85.3164V85.2111C1.47124 79.7221 6.46144 75.5 13.2904 75.5C18.6474 75.5 22.1677 76.9782 25.8969 79.986L24.1636 82.15C20.6964 79.1416 17.2299 77.9806 13.1849 77.9806C7.77418 77.9806 4.20281 81.095 4.20281 84.9472V85.0531C4.20281 88.9586 6.19813 91.3339 14.9182 93.1281C23.428 94.8696 27 97.9306 27 103.314V103.42C27 109.384 21.9043 113.5 14.8127 113.5C8.9297 113.5 4.41244 111.547 0 107.589Z" fill="#B07237"/>
<path fill-rule="evenodd" clip-rule="evenodd" d="M113 113.5H116V76.5H113V113.5Z" fill="#B07237"/>
<path fill-rule="evenodd" clip-rule="evenodd" d="M127 76.5H129.61L155.338 108.725V76.5051H158V113.5H155.923L129.663 80.5931V113.5H127V76.5Z" fill="#B07237"/>
<path fill-rule="evenodd" clip-rule="evenodd" d="M52.8178 76.5H50.1822L33 113.5H35.8466L51.4474 79.4916L66.9957 113.5H70L52.8178 76.5Z" fill="#B07237"/>
<path fill-rule="evenodd" clip-rule="evenodd" d="M85.1822 113.5H87.8178L105 76.5H102.153L86.5526 110.508L71.0044 76.5H68L85.1822 113.5Z" fill="#B07237"/>
<path fill-rule="evenodd" clip-rule="evenodd" d="M42 122.5H52V124.192H43.8149V128.827H51.1118V130.519H43.8149V136.5H42V122.5Z" fill="#B07237"/>
<path fill-rule="evenodd" clip-rule="evenodd" d="M70 122.5H71.9714L76.9902 129.827L82.009 122.5H84V136.5H82.0887V125.539L77.0098 132.769H76.9308L71.8721 125.577V136.5H70V122.5Z" fill="#B07237"/>
<path fill-rule="evenodd" clip-rule="evenodd" d="M88 136.5H90V122.5H88V136.5Z" fill="#B07237"/>
<path fill-rule="evenodd" clip-rule="evenodd" d="M94 122.5H95.9277V134.808H104V136.5H94V122.5Z" fill="#B07237"/>
<path fill-rule="evenodd" clip-rule="evenodd" d="M109.023 130.961L103 122.5H105.317L110.01 129.269L114.744 122.5H117L110.977 130.923V136.5H109.023V130.961Z" fill="#B07237"/>
<path fill-rule="evenodd" clip-rule="evenodd" d="M60.4139 122.5H58.6065L52 136.5H53.9878L59.4697 124.639L64.9523 136.5H67L60.4139 122.5Z" fill="#B07237"/>
<path fill-rule="evenodd" clip-rule="evenodd" d="M62.2686 133.502C61.2508 133.815 60.1504 133.986 59.0023 133.986C57.8523 133.986 56.7506 133.814 55.7314 133.5L55 134.887C56.244 135.281 57.592 135.5 59.0023 135.5C60.4107 135.5 61.7574 135.282 63 134.888L62.2686 133.502Z" fill="#B07237"/>
</g>
</svg>
