<svg width="208" height="43" viewBox="0 0 208 43" fill="none" xmlns="http://www.w3.org/2000/svg">
<path fill-rule="evenodd" clip-rule="evenodd" d="M203.582 12.6499H202.492C202.559 13.4579 203.25 14.0099 204.382 14.0099C205.425 14.0099 206.201 13.4669 206.23 12.6499H205.14C205.102 13.0589 204.809 13.2009 204.382 13.2009C203.913 13.2009 203.658 13.0209 203.582 12.6499ZM134.303 15.1329C133.65 15.7829 133.294 16.6738 133.321 17.5949C133.282 18.5196 133.634 19.4179 134.289 20.0709C134.945 20.7239 135.845 21.0715 136.77 21.0289C137.692 21.0595 138.585 20.7084 139.24 20.0583C139.894 19.4083 140.251 18.517 140.227 17.5949C140.265 16.6689 139.912 15.7695 139.255 15.1165C138.597 14.4634 137.695 14.117 136.77 14.1619C135.849 14.1315 134.956 14.4828 134.303 15.1329ZM149.102 29.0829C149.081 27.5348 149.705 26.0477 150.824 24.9775C151.943 23.9073 153.456 23.3504 155.002 23.4399C158.375 23.4399 160.902 25.6059 160.902 29.0829C160.921 30.6312 160.297 32.1181 159.178 33.1892C158.06 34.2603 156.548 34.8196 155.002 34.7339C151.619 34.7319 149.099 32.5619 149.099 29.0819L149.102 29.0829ZM195.102 29.0829C195.082 27.5349 195.706 26.0482 196.824 24.9782C197.943 23.9082 199.456 23.351 201.002 23.4399C204.376 23.4399 206.902 25.6059 206.902 29.0829C206.921 30.6312 206.297 32.1181 205.178 33.1892C204.06 34.2603 202.548 34.8196 201.002 34.7339C197.624 34.7319 195.102 32.5619 195.102 29.0819V29.0829ZM87.4846 36.4169V34.5429H80.6046V36.4149H78.2286V32.2039H79.4166C79.8626 31.6419 80.8606 29.3789 81.0166 25.8039L81.1166 23.6179H88.3596V32.1999H89.8656V36.4109L87.4846 36.4169ZM192.06 36.4169V34.5449H184.06V23.6229H186.596V32.2039H190.396V23.6229H192.935V32.2039H194.44V36.4169H192.06ZM82.2066 32.2059C82.8857 30.8306 83.2896 29.336 83.3956 27.8059L83.5706 25.9659H85.8196V32.2059H82.2066ZM198.706 31.4105C198.104 30.7877 197.778 29.9488 197.802 29.0829C197.802 27.3156 199.234 25.8829 201.002 25.8829C202.769 25.8829 204.202 27.3156 204.202 29.0829C204.278 29.9627 203.97 30.8324 203.356 31.4674C202.742 32.1024 201.884 32.4403 201.002 32.3939C200.135 32.3878 199.308 32.0334 198.706 31.4105ZM152.706 31.4105C152.104 30.7877 151.778 29.9488 151.802 29.0829C151.802 27.3156 153.234 25.8829 155.002 25.8829C156.769 25.8829 158.202 27.3156 158.202 29.0829C158.278 29.9627 157.97 30.8324 157.356 31.4674C156.742 32.1024 155.884 32.4403 155.002 32.3939C154.135 32.3878 153.308 32.0334 152.706 31.4105ZM113.368 29.0829C113.347 27.5348 113.971 26.0477 115.09 24.9775C116.209 23.9073 117.722 23.3504 119.268 23.4399C122.644 23.4399 125.168 25.6059 125.168 29.0829C125.187 30.6312 124.563 32.1181 123.444 33.1892C122.326 34.2603 120.814 34.8196 119.268 34.7339C115.885 34.7319 113.363 32.5619 113.363 29.0819L113.368 29.0829ZM116.973 31.4099C116.371 30.7872 116.045 29.9486 116.068 29.0829C116.068 27.3156 117.5 25.8829 119.268 25.8829C121.035 25.8829 122.468 27.3156 122.468 29.0829C122.543 29.9624 122.234 30.8316 121.621 31.4663C121.007 32.1011 120.149 32.4393 119.268 32.3939C118.402 32.3872 117.575 32.0326 116.973 31.4099ZM90.5376 29.0829C90.5165 27.5357 91.1393 26.0492 92.257 24.9791C93.3747 23.909 94.8868 23.3515 96.4316 23.4399C99.8096 23.4399 102.332 25.6059 102.332 29.0829C102.351 30.6314 101.727 32.1187 100.609 33.1899C99.4906 34.2611 97.9779 34.8202 96.4316 34.7339C93.0466 34.7319 90.5286 32.5619 90.5286 29.0819L90.5376 29.0829ZM94.1365 31.4102C93.5346 30.7874 93.2085 29.9487 93.2316 29.0829C93.2316 27.3156 94.6643 25.8829 96.4316 25.8829C98.199 25.8829 99.6316 27.3156 99.6316 29.0829C99.7081 29.9627 99.3997 30.8324 98.7859 31.4674C98.1722 32.1024 97.3135 32.4403 96.4316 32.3939C95.5656 32.3875 94.7384 32.033 94.1365 31.4102ZM56.8346 29.0829C56.8346 25.9469 58.8166 23.4379 62.6346 23.4379C63.8657 23.3892 65.0719 23.7938 66.0246 24.5749L64.9006 26.4449C64.2301 25.9998 63.4414 25.7664 62.6366 25.7749C61.7686 25.7475 60.9307 26.0945 60.336 26.7274C59.7413 27.3603 59.4473 28.2183 59.5286 29.0829C59.4939 29.9797 59.8384 30.8497 60.4779 31.4794C61.1173 32.1092 61.9925 32.4404 62.8886 32.3919C63.7556 32.3856 64.5983 32.1056 65.2966 31.5919L66.2646 33.4619C65.2675 34.3321 63.9739 34.7857 62.6516 34.7289C61.108 34.8384 59.5908 34.2848 58.4803 33.207C57.3698 32.1291 56.7713 30.6292 56.8346 29.0829ZM161.601 32.0449L161.557 34.5449C161.845 34.5946 162.138 34.621 162.431 34.6239C164.477 34.6239 165.63 33.1029 166.219 28.0239L166.455 25.9649H168.897V34.5449H171.435V23.6199H164.073L163.917 25.8039C163.475 31.8589 162.521 32.2009 161.601 32.0449ZM104.378 34.5119V23.6499C104.996 23.6229 106.535 23.5609 107.735 23.5609C110.385 23.5609 111.463 24.7609 111.463 26.2749C111.523 27.2573 111.036 28.1928 110.197 28.7069V28.7389C111.213 29.1373 111.854 30.1495 111.779 31.2389C111.779 33.5389 109.972 34.6119 107.565 34.6119C106.503 34.6089 105.026 34.5739 104.378 34.5119ZM107.771 32.2649C107.482 32.2769 107.194 32.2452 106.915 32.1709V30.1259H107.896C108.722 30.1259 109.242 30.4229 109.242 31.1109C109.242 31.8449 108.751 32.2649 107.771 32.2649ZM106.915 25.9659V27.9449H107.754C108.405 27.9449 108.925 27.6779 108.925 26.8809C108.925 26.2289 108.325 25.9009 107.705 25.9009C107.44 25.9041 107.176 25.9258 106.915 25.9659ZM174.281 23.6209V34.5449H174.282C174.554 34.5449 174.924 34.5499 175.345 34.5556C175.924 34.5634 176.601 34.5725 177.262 34.5719C180.352 34.5719 182.001 32.9979 182.001 30.6589C182.001 28.4259 180.683 26.9779 177.801 26.9779C177.472 26.9801 177.143 27.0012 176.817 27.0409V23.6209H174.281ZM176.817 29.3969V32.1699C177.063 32.2062 177.312 32.2269 177.561 32.2319C178.591 32.2319 179.305 31.8319 179.305 30.7199C179.305 29.6779 178.515 29.3199 177.579 29.3199C177.323 29.3278 177.069 29.3535 176.817 29.3969ZM142.035 29.3499L145.817 34.5449L149.035 34.5439L144.535 28.6599L148.705 23.6229H145.665L142.035 28.3809V23.6229H139.496V34.5499H142.035V29.3499ZM127.217 34.5449V23.6229H133.794V25.9649H129.75V27.8829H133.318V30.2239H129.75V32.2049H133.95V34.5459L127.217 34.5449ZM74.4436 32.2449L75.3626 34.5449H78.0716L73.4596 23.6229H71.1926L66.5786 34.5449H69.1326L70.0536 32.2449H74.4436ZM71.0036 29.9109H73.4926L72.2566 26.8219L71.0036 29.9109ZM134.552 17.5949C134.526 18.2019 134.748 18.7933 135.166 19.2342C135.584 19.6751 136.162 19.9279 136.77 19.9349C137.385 19.9505 137.978 19.705 138.402 19.259C138.826 18.8131 139.041 18.2085 138.995 17.5949C139.041 16.7715 138.628 15.99 137.921 15.5644C137.215 15.1387 136.331 15.1387 135.625 15.5644C134.918 15.99 134.505 16.7715 134.552 17.5949ZM205.941 16.1979V20.9239H207.106V14.2669H206.083L202.606 19.0039V14.2659H201.441V20.9249H202.464L205.941 16.1979ZM194.641 20.9239V16.1979L191.164 20.9249H190.145V14.2659H191.311V19.0039L194.787 14.2669H195.81V20.9239H194.641ZM183.356 18.0809V20.9239H184.512V14.2659H183.356V16.9869H180.324V14.2659H179.158V20.9239H180.324V18.0809H183.356ZM173.141 20.9239L172.45 19.2239H169.617L168.926 20.9239H167.755L170.555 14.2479H171.578L174.378 20.9239H173.141ZM172.004 18.1239H170.062L171.038 15.7549L172.004 18.1239ZM161.808 20.9239V15.3609H158.852V20.9239H157.687V14.2659H162.973V20.9239H161.808ZM150.901 16.1119V20.9239H152.058V14.2659H150.958L148.799 17.3769L146.535 14.2659H145.364V20.9239H146.53V16.1409L148.642 19.0699H148.812L150.901 16.1119ZM127.901 20.9239L125.2 17.4909V20.9239H124.035V14.2659H125.201V17.4249L127.815 14.2659H129.215L126.487 17.3659L129.387 20.9239H127.901ZM111.518 19.2239L112.209 20.9239L113.455 20.9259L110.655 14.2499H109.635L106.828 20.9239H108.003L108.694 19.2239H111.518ZM109.135 18.1289H111.078L110.116 15.7599L109.135 18.1289ZM100.862 15.3609V20.9289L102.035 20.9239V14.2659H96.7446V20.9239H97.9106V15.3609H100.862ZM89.9556 20.9289V15.3609H87.0046V20.9239H85.8346V14.2659H91.1216V20.9239L89.9556 20.9289ZM76.4626 19.6729L76.0556 20.6619L76.0606 20.6579C76.3312 20.8333 76.6472 20.9257 76.9696 20.9239C77.7936 20.9239 78.3146 20.3919 78.7696 19.3739L81.0246 14.2699H79.8436L78.2626 17.9889L76.0926 14.2699H74.7756L77.7026 19.1399L77.6086 19.3689C77.5104 19.6459 77.2496 19.8321 76.9556 19.8349C76.7775 19.84 76.6031 19.7827 76.4626 19.6729ZM66.3426 20.9289V14.2659C66.5172 14.2659 66.8435 14.2619 67.1882 14.2577L67.1883 14.2577L67.1883 14.2577L67.1883 14.2577C67.5744 14.2529 67.9835 14.2479 68.2286 14.2479C70.1796 14.2479 70.7956 15.2939 70.7956 16.3879C70.7881 17.0049 70.5217 17.5904 70.0615 18.0016C69.6013 18.4127 68.9896 18.6117 68.3756 18.5499C68.1756 18.5499 67.7976 18.5499 67.5136 18.5209V20.9239L66.3426 20.9289ZM67.5086 17.4059V15.3649L67.5136 15.3609C67.8256 15.3499 68.1096 15.3419 68.3436 15.3379C69.1396 15.3379 69.5656 15.6809 69.5656 16.3749C69.5656 17.1169 69.0256 17.4499 68.3346 17.4499C68.0587 17.4494 67.783 17.4347 67.5086 17.4059ZM57.7536 20.9239V14.2659H61.4956V15.3609H58.9186V20.9239H57.7536Z" fill="white"/>
<path fill-rule="evenodd" clip-rule="evenodd" d="M21.1099 1.79376e-05C9.43366 0.035856 -0.0100507 9.5167 -7.01395e-05 21.193C-0.103968 32.5084 8.73664 41.8911 20.0381 42.4601C31.3396 43.029 41.0779 34.5816 42.1109 23.313H33.5939C32.4674 29.9722 26.3315 34.589 19.6208 33.8266C12.9102 33.0643 7.96616 27.189 8.36194 20.4467C8.75771 13.7045 14.3552 8.44795 21.1089 8.47602C21.5049 8.47602 21.8989 8.49802 22.2889 8.53302L29.1829 1.61402C26.6256 0.546088 23.8813 -0.00255391 21.1099 1.79376e-05ZM54.8819 1.79376e-05L33.7729 21.193H42.2159L63.3239 1.79376e-05H54.8819ZM23.2199 21.193L44.3279 1.79376e-05H52.7709L31.6629 21.193H23.2199ZM33.7739 1.79376e-05L12.6659 21.193H21.1099L42.2169 1.79376e-05H33.7739Z" fill="#ffffff"/>
</svg>
