<svg width="124" height="49" viewBox="0 0 124 49" fill="none" xmlns="http://www.w3.org/2000/svg"><mask id="asdasdasd" style="mask-type:alpha" maskUnits="userSpaceOnUse" x="0" y="1" width="22" height="30"><path fill-rule="evenodd" clip-rule="evenodd" d="M0 1h21.414v29.996H0V1Z" fill="#fff"/></mask><g mask="url(#asdasdasd)"><path fill-rule="evenodd" clip-rule="evenodd" d="m0 26.33 1.417-1.625c3.208 2.958 6.166 4.333 10.457 4.333 4.373 0 7.372-2.459 7.372-5.791v-.084c0-3.082-1.623-4.873-8.247-6.207C4 15.54 1.166 13.165 1.166 8.75v-.083C1.166 4.333 5.125 1 10.54 1c4.25 0 7.041 1.167 9.999 3.542l-1.375 1.707c-2.75-2.374-5.499-3.291-8.707-3.291-4.291 0-7.124 2.458-7.124 5.5v.083c0 3.082 1.583 4.957 8.498 6.373 6.749 1.376 9.583 3.792 9.583 8.04v.084c0 4.709-4.042 7.957-9.666 7.957-4.666 0-8.249-1.54-11.748-4.666Z" fill="currentColor"/></g><mask id="htdawer" style="mask-type:alpha" maskUnits="userSpaceOnUse" x="0" y="1" width="124" height="48"><path fill-rule="evenodd" clip-rule="evenodd" d="M0 48.985h123.561V1H0v47.985Z" fill="#fff"/></mask><g mask="url(#htdawer)" fill-rule="evenodd" clip-rule="evenodd" fill="currentColor"><path d="M88.191 30.72h2.166V1.349h-2.166v29.37ZM99.314 1.345h2.041l20.122 25.584V1.349h2.083v29.37h-1.624L101.397 4.596V30.72h-2.083V1.345ZM41.076 1.35h-2.083l-13.58 29.37h2.25l12.33-26.997 12.29 26.997h2.375L41.076 1.35ZM66.44 30.72h2.082L82.104 1.349h-2.25l-12.33 26.997L55.231 1.349h-2.374l13.581 29.37ZM32.376 37.73h8.178v1.362h-6.695v3.724h5.968v1.361h-5.968v4.807h-1.483V37.73ZM54.592 37.73h1.529l3.898 5.89 3.894-5.89h1.546v11.255h-1.484v-8.813l-3.942 5.815h-.061l-3.928-5.782v8.78h-1.452V37.73ZM68.784 48.985h1.5V37.731h-1.5v11.254ZM73.607 37.73h1.484v9.896h6.215v1.358h-7.699V37.73ZM85.063 44.532l-4.622-6.801h1.777l3.603 5.44 3.632-5.44h1.732l-4.623 6.77v4.483h-1.499v-4.452ZM47.264 37.653h-1.393l-5.085 11.332h1.531l4.22-9.6 4.22 9.6h1.577l-5.07-11.332Z"/><path d="M49.004 46.07c-.77.283-1.6.44-2.467.44a7.116 7.116 0 0 1-2.47-.442l-.554 1.256a8.474 8.474 0 0 0 6.044.002l-.553-1.257Z"/></g></svg>
