<svg width="158" height="136" viewBox="0 0 158 136" fill="none" xmlns="http://www.w3.org/2000/svg"><path fill-rule="evenodd" clip-rule="evenodd" d="M139.24 2.957v5.928h-1.464V2.957c0-.408.328-.738.732-.738.404 0 .732.33.732.738Zm-2.224 0v5.928h-1.464V2.957c0-.408.328-.738.732-.738.404 0 .732.33.732.738Zm-2.224 0v5.928h-1.464V2.957c0-.408.328-.738.732-.738.404 0 .732.33.732.738Zm-3.688 20.398h1.464V9.65h-1.464v13.705Zm1.464 1.955v5.928h-1.464V25.31c0-.407.327-.737.732-.737.405 0 .732.33.732.737Zm-1.464-22.353c0-.408.327-.738.732-.738.405 0 .732.33.732.738v5.928h-1.464V2.957Zm-.76 0v5.928h-1.464V2.957c0-.408.327-.738.732-.738.404 0 .732.33.732.738Zm-1.464 20.398h1.464V9.65h-1.464v13.705Zm1.464 1.955v5.928h-1.464V25.31c0-.407.327-.737.732-.737.404 0 .732.33.732.737ZM128.12 2.957v5.928h-1.464V2.957c0-.408.327-.738.732-.738.404 0 .732.33.732.738Zm-1.464 20.398h1.464V9.65h-1.464v13.705Zm1.464 1.955v5.928h-1.464V25.31c0-.407.328-.737.732-.737.404 0 .732.33.732.737Zm-3.688-1.955h1.464V9.65h-1.464v13.705Zm1.464 1.955v5.928h-1.464V25.31c0-.407.327-.737.732-.737.405 0 .732.33.732.737Zm-1.464-22.353c0-.408.327-.738.732-.738.405 0 .732.33.732.738v5.928h-1.464V2.957Zm-.76 22.353v5.928h-1.464V25.31c0-.407.328-.737.732-.737.404 0 .732.33.732.737Zm-2.223 0v5.928h-1.465V25.31c0-.407.328-.737.732-.737.404 0 .733.33.733.737Zm-2.225 0v5.928h-1.463V25.31c0-.407.327-.737.731-.737.405 0 .732.33.732.737Zm4.448-24.308v22.353h-.759V1l-2.984 3.05v19.305H117V64h.761V32.003h1.463V64h.76V32.003h1.465V64h.759V32.003h1.464V64h.76V32.003h1.464V64h.76V32.003h1.464V64h.76V32.003h1.464V64h.76V32.003h1.464V64h.76V9.65h1.464V64h.76V9.65h1.464V64h.76V9.65h1.464V64h.76V1.002h-16.328Z" fill="currentColor"/><mask id="a" style="mask-type:alpha" maskUnits="userSpaceOnUse" x="0" y="0" width="158" height="136"><path fill-rule="evenodd" clip-rule="evenodd" d="M0 136h158V0H0v136Z" fill="#fff"/></mask><g mask="url(#a)" fill-rule="evenodd" clip-rule="evenodd" fill="currentColor"><path d="M83.614 57.154h1.478V16.67h-1.478v40.485Zm-4.49 0h1.478V16.67h-1.477v40.485Zm-2.245 0h1.478V16.67H76.88v40.485Zm-2.244 0h1.478V16.67h-1.478v40.485Zm-2.245 0h1.478V16.67H72.39v40.485Zm0-47.194a.739.739 0 0 1 1.478 0v5.942H72.39V9.96Zm2.245 0a.738.738 0 1 1 1.478 0v5.942h-1.478V9.96Zm2.244 0a.74.74 0 0 1 1.479 0v5.942h-1.479V9.96Zm2.246 0a.738.738 0 1 1 1.477 0v5.942h-1.477V9.96Zm2.244 47.195h1.478V16.669H81.37v40.486Zm0-47.195a.738.738 0 1 1 1.478 0v5.942H81.37V9.96Zm2.245 0a.739.739 0 0 1 1.478 0v5.942h-1.478V9.96Zm2.245 0a.738.738 0 1 1 1.477 0v5.942h-1.477V9.96Zm0 47.195h1.477V16.669h-1.478v40.486Zm27.129 0H88.103V8h-16.48V57.155H45.013V26.314L42 23.257V64h3.012v-5.626h1.694V64h3.04v-5.626h1.695V64h3.04v-5.626h1.694V64h3.04v-5.626h1.694V64h3.041v-5.626h1.694V64h3.04v-5.626h1.695V64h3.04v-5.626h1.694V64h3.04v-5.626h1.695V64h3.04v-5.626h1.694V64h3.04v-5.626h1.694V64h3.04v-5.626h1.695V64h3.04v-5.626h1.695V64h3.04v-5.626h1.694V64h3.04v-5.626h1.694V64h3.04v-5.626h1.694V64H116V23.257l-3.012 3.056v30.842ZM38.016 25.099v5.96h-1.464V25.1c0-.41.328-.742.733-.742.403 0 .731.332.731.742Zm.76 0c0-.41.328-.742.732-.742.404 0 .732.332.732.742v5.96h-1.464V25.1Zm-2.984 0v5.96h-1.464V25.1c0-.41.328-.742.732-.742.404 0 .732.332.732.742Zm-2.224-8.132v5.96h-1.464v-5.96c0-.41.328-.742.732-.742.404 0 .732.332.732.742Zm0 8.132v5.96h-1.464V25.1c0-.41.328-.742.732-.742.404 0 .732.332.732.742Zm-2.224-8.132v5.96H29.88v-5.96c0-.41.328-.742.733-.742.404 0 .731.332.731.742Zm0 8.132v5.96H29.88V25.1c0-.41.328-.742.733-.742.404 0 .731.332.731.742Zm-2.224-8.132v5.96h-1.464v-5.96c0-.41.327-.742.732-.742.405 0 .732.332.732.742Zm0 8.132v5.96h-1.464V25.1c0-.41.327-.742.732-.742.405 0 .732.332.732.742Zm-2.224-8.132v5.96h-1.464v-5.96c0-.41.328-.742.732-.742.404 0 .732.332.732.742Zm0 8.132v5.96h-1.464V25.1c0-.41.328-.742.732-.742.404 0 .732.332.732.742Zm-2.224-8.132v5.96h-1.464v-5.96c0-.41.328-.742.732-.742.405 0 .732.332.732.742Zm-2.224 0v5.96h-1.463v-5.96c0-.41.327-.742.731-.742.405 0 .732.332.732.742Zm-2.223 0v5.96H18.76v-5.96c0-.41.328-.742.732-.742.404 0 .733.332.733.742Zm17.846 1.099L35.087 15v8.133h-.759v-8.132H18V64h.76V23.697h1.465V64h.76V23.697h1.463V64h.76V23.697h1.465V64h.759V31.829h1.464V64h.76V31.829h1.464V64h.76V31.829h1.464V64h.76V31.829h1.464V64h.76V31.829h1.464V64h.76V31.829h1.464V64h.76V31.829h1.464V64H41V23.133h-2.929v-5.067ZM0 107.089l1.786-2.058c4.045 3.747 7.774 5.488 13.185 5.488 5.516 0 9.297-3.113 9.297-7.335v-.106c0-3.906-2.048-6.175-10.4-7.864C5.043 93.42 1.471 90.411 1.471 84.816v-.105c0-5.489 4.99-9.711 11.82-9.711 5.356 0 8.877 1.478 12.606 4.486l-1.733 2.164c-3.468-3.008-6.934-4.17-10.98-4.17-5.41 0-8.981 3.115-8.981 6.967v.106c0 3.906 1.995 6.28 10.715 8.075C23.428 94.37 27 97.431 27 102.814v.106c0 5.964-5.096 10.08-12.187 10.08-5.883 0-10.4-1.953-14.813-5.911M113 113h3V76h-3v37ZM127 76h2.61l25.728 32.225v-32.22H158V113h-2.077l-26.26-32.907V113H127V76ZM52.818 76h-2.636L33 113h2.847l15.6-34.008L66.996 113H70L52.818 76ZM85.182 113h2.636L105 76h-2.847l-15.6 34.008L71.004 76H68l17.182 37ZM42 122h10v1.692h-8.185v4.635h7.297v1.692h-7.297V136H42v-14ZM70 122h1.971l5.02 7.327L82.008 122H84v14h-1.911v-10.961l-5.08 7.23h-.078l-5.059-7.192V136H70v-14ZM88 136h2v-14h-2v14ZM94 122h1.928v12.308H104V136H94v-14ZM109.023 130.461 103 122h2.317l4.693 6.769 4.734-6.769H117l-6.023 8.423V136h-1.954v-5.539ZM60.414 122h-1.808L52 136h1.988l5.482-11.861L64.952 136H67l-6.586-14Z"/><path d="M62.269 133.002a11.114 11.114 0 0 1-3.267.484 11.11 11.11 0 0 1-3.27-.486L55 134.387c1.244.394 2.592.613 4.002.613 1.409 0 2.755-.218 3.998-.612l-.731-1.386Z"/></g></svg>
