<svg width="158" height="140" viewBox="0 0 158 140" fill="none" xmlns="http://www.w3.org/2000/svg">
<path d="M0 109.117L1.8114 107.039C5.91309 110.821 9.69552 112.58 15.1827 112.58C20.7765 112.58 24.6118 109.437 24.6118 105.175V105.068C24.6118 101.126 22.5341 98.8355 14.0644 97.13C5.1141 95.3194 1.49214 92.2831 1.49214 86.6363V86.5296C1.49214 80.9887 6.55246 76.7274 13.478 76.7274C18.9113 76.7274 22.4812 78.2187 26.2636 81.255L24.5051 83.4394C20.9899 80.4031 17.4738 79.2311 13.3713 79.2311C7.88412 79.2311 4.26217 82.3741 4.26217 86.2633V86.37C4.26217 90.312 6.28613 92.709 15.1297 94.5204C23.7591 96.278 27.3819 99.3682 27.3819 104.802V104.908C27.3819 110.928 22.2149 115.083 15.023 115.083C9.05616 115.083 4.47473 113.112 0 109.117Z" fill="white"/>
<path d="M112.771 77.1738H115.542V114.731H112.771V77.1738Z" fill="white"/>
<path d="M126.996 77.1682H129.606L155.337 109.883V77.1733H158.001V114.73H155.923L129.659 81.3237V114.73H126.996V77.1682Z" fill="white"/>
<path d="M52.5246 77.1738H49.8612L32.4941 114.731H35.3709L51.1391 80.2102L66.8553 114.731H69.8917L52.5246 77.1738Z" fill="white"/>
<path d="M84.9589 114.731H87.6231L104.989 77.1738H102.113L86.3443 111.695L70.6282 77.1738H67.5918L84.9589 114.731Z" fill="white"/>
<path d="M84.0215 65.0645H84.8068V15.0067H84.0215V65.0645Z" fill="white"/>
<path d="M86.3125 65.0645H87.0978V15.0067H86.3125V65.0645Z" fill="white"/>
<path d="M70.5078 65.0645H71.2932V15.0067H70.5078V65.0645Z" fill="white"/>
<path d="M72.7578 65.0645H73.5432V15.0067H72.7578V65.0645Z" fill="white"/>
<path d="M75.0137 65.0645H75.799V15.0067H75.0137V65.0645Z" fill="white"/>
<path d="M77.2637 65.0645H78.049V15.0067H77.2637V65.0645Z" fill="white"/>
<path d="M79.5156 65.0645H80.301V15.0067H79.5156V65.0645Z" fill="white"/>
<path d="M81.7695 65.0645H82.5549V15.0067H81.7695V65.0645Z" fill="white"/>
<path d="M41.6816 65.0645H42.467V15.0067H41.6816V65.0645Z" fill="white"/>
<path d="M28.1699 65.0645H28.9553V15.0067H28.1699V65.0645Z" fill="white"/>
<path d="M30.4219 65.0645H31.2072V15.0067H30.4219V65.0645Z" fill="white"/>
<path d="M32.6738 65.0645H33.4592V15.0067H32.6738V65.0645Z" fill="white"/>
<path d="M34.9258 65.0645H35.7111V15.0067H34.9258V65.0645Z" fill="white"/>
<path d="M37.1777 65.0645H37.9631V15.0067H37.1777V65.0645Z" fill="white"/>
<path d="M39.4297 65.0645H40.215V15.0067H39.4297V65.0645Z" fill="white"/>
<path d="M43.9746 65.0635H47.8313V18.8565L43.9746 14.9998V65.0635Z" fill="white"/>
<path d="M62.8496 65.0645H63.6349V49.5181H62.8496V65.0645Z" fill="white"/>
<path d="M49.3398 65.0645H50.1252V49.5181H49.3398V65.0645Z" fill="white"/>
<path d="M51.5918 65.0645H52.3771V49.5181H51.5918V65.0645Z" fill="white"/>
<path d="M53.8438 65.0645H54.6291V49.5181H53.8438V65.0645Z" fill="white"/>
<path d="M56.0938 65.0645H56.8791V49.5181H56.0938V65.0645Z" fill="white"/>
<path d="M58.3477 65.0645H59.133V49.5181H58.3477V65.0645Z" fill="white"/>
<path d="M60.5977 65.0645H61.383V49.5181H60.5977V65.0645Z" fill="white"/>
<path d="M65.1445 65.0635H69.0012V53.367L65.1445 49.5112V65.0635Z" fill="white"/>
<path d="M115.139 65.0645H115.924V15.0067H115.139V65.0645Z" fill="white"/>
<path d="M128.652 65.0645H129.438V15.0067H128.652V65.0645Z" fill="white"/>
<path d="M126.398 65.0645H127.184V15.0067H126.398V65.0645Z" fill="white"/>
<path d="M124.146 65.0645H124.932V15.0067H124.146V65.0645Z" fill="white"/>
<path d="M121.895 65.0645H122.68V15.0067H121.895V65.0645Z" fill="white"/>
<path d="M119.643 65.0645H120.428V15.0067H119.643V65.0645Z" fill="white"/>
<path d="M117.391 65.0645H118.176V15.0067H117.391V65.0645Z" fill="white"/>
<path d="M109.775 65.064H113.632V15.0003L109.775 18.857V65.064Z" fill="white"/>
<path d="M93.9707 65.0645H94.756V49.5181H93.9707V65.0645Z" fill="white"/>
<path d="M107.482 65.0645H108.268V49.5181H107.482V65.0645Z" fill="white"/>
<path d="M105.23 65.0645H106.016V49.5181H105.23V65.0645Z" fill="white"/>
<path d="M102.979 65.0645H103.764V49.5181H102.979V65.0645Z" fill="white"/>
<path d="M100.727 65.0645H101.512V49.5181H100.727V65.0645Z" fill="white"/>
<path d="M98.4746 65.0645H99.2599V49.5181H98.4746V65.0645Z" fill="white"/>
<path d="M96.2227 65.0645H97.008V49.5181H96.2227V65.0645Z" fill="white"/>
<path d="M88.6055 65.0635H92.4622V49.5112L88.6055 53.367V65.0635Z" fill="white"/>
<path d="M42.2539 123.692H44.1524V129.96H52.0228V123.692H53.9409V138.087H52.0228V131.72H44.1524V138.087H42.2539V123.692Z" fill="white"/>
<path d="M70.2142 130.929V130.89C70.2142 127.765 67.9205 125.195 64.7757 125.195C61.6122 125.195 59.3774 127.726 59.3774 130.85V130.89C59.3774 134.014 61.6711 136.585 64.8159 136.585C67.9794 136.585 70.2142 134.054 70.2142 130.929ZM57.4004 130.929V130.89C57.4004 126.895 60.4257 123.454 64.8159 123.454C69.2052 123.454 72.1921 126.856 72.1921 130.85V130.89C72.1921 134.884 69.166 138.325 64.7757 138.325C60.3864 138.325 57.4004 134.923 57.4004 130.929" fill="white"/>
<path d="M75.4316 132.036V123.691H77.3497V131.937C77.3497 134.904 78.9119 136.565 81.5223 136.565C84.0337 136.565 85.6351 135.042 85.6351 132.036V123.691H87.5335V131.918C87.5335 136.13 85.1212 138.305 81.483 138.305C77.844 138.305 75.4316 136.149 75.4316 132.036Z" fill="white"/>
<path d="M90.4785 135.992L91.6454 134.607C93.1085 135.912 94.5324 136.585 96.4505 136.585C98.2696 136.585 99.4758 135.655 99.4758 134.33V134.291C99.4758 133.065 98.8031 132.373 95.8769 131.72C92.6339 131.009 91.0522 129.98 91.0522 127.528V127.489C91.0522 125.155 93.0684 123.494 95.8376 123.494C97.9333 123.494 99.4758 124.088 100.939 125.273L99.871 126.737C98.5462 125.669 97.241 125.195 95.7975 125.195C94.0382 125.195 92.9506 126.144 92.9506 127.311V127.349C92.9506 128.655 93.6617 129.327 96.7075 130C99.871 130.711 101.374 131.839 101.374 134.113V134.153C101.374 136.684 99.2982 138.286 96.3916 138.286C94.1363 138.286 92.1986 137.534 90.4785 135.992Z" fill="white"/>
<path d="M104.754 123.691H115.235V125.411H106.652V129.979H114.305V131.7H106.652V136.367H115.334V138.087H104.754V123.691Z" fill="white"/>
</svg>
