<svg width="158" height="140" viewBox="0 0 158 140" fill="none" xmlns="http://www.w3.org/2000/svg">
<path fill-rule="evenodd" clip-rule="evenodd" d="M139.24 4.95657V10.8849H137.776V4.95657C137.776 4.54927 138.104 4.21931 138.508 4.21931C138.912 4.21931 139.24 4.54927 139.24 4.95657V4.95657ZM137.016 4.95657V10.8849H135.552V4.95657C135.552 4.54927 135.88 4.21931 136.284 4.21931C136.688 4.21931 137.016 4.54927 137.016 4.95657V4.95657ZM134.792 4.95657V10.8849H133.328V4.95657C133.328 4.54927 133.656 4.21931 134.06 4.21931C134.464 4.21931 134.792 4.54927 134.792 4.95657V4.95657ZM131.104 25.3549H132.568V11.6499H131.104V25.3549ZM132.568 27.3101V33.2385H131.104V27.3101C131.104 26.9028 131.431 26.5729 131.836 26.5729C132.241 26.5729 132.568 26.9028 132.568 27.3101H132.568H132.568ZM131.104 4.95657V4.95657C131.104 4.54927 131.431 4.21931 131.836 4.21931C132.241 4.21931 132.568 4.54927 132.568 4.95657V10.8849H131.104V4.95657ZM130.344 4.95657V10.8849H128.88V4.95657C128.88 4.54927 129.207 4.21931 129.612 4.21931C130.016 4.21931 130.344 4.54927 130.344 4.95657V4.95657ZM128.88 25.3549H130.344V11.6499H128.88V25.3549ZM130.344 27.3101V33.2385H128.88V27.3101C128.88 26.9028 129.207 26.5729 129.612 26.5729C130.016 26.5729 130.344 26.9028 130.344 27.3101V27.3101ZM128.12 4.95657V10.8849H126.656V4.95657C126.656 4.54927 126.983 4.21931 127.388 4.21931C127.792 4.21931 128.12 4.54927 128.12 4.95657V4.95657ZM126.656 25.3549H128.12V11.6499H126.656V25.3549ZM128.12 27.3101V33.2385H126.656V27.3101C126.656 26.9028 126.984 26.5729 127.388 26.5729C127.792 26.5729 128.12 26.9028 128.12 27.3101V27.3101ZM124.432 25.3549H125.896V11.6499H124.432V25.3549ZM125.896 27.3101V33.2385H124.432V27.3101C124.432 26.9028 124.759 26.5729 125.164 26.5729C125.569 26.5729 125.896 26.9028 125.896 27.3101V27.3101ZM124.432 4.95657V4.95657C124.432 4.54927 124.759 4.21931 125.164 4.21931C125.569 4.21931 125.896 4.54927 125.896 4.95657V10.8849H124.432V4.95657ZM123.672 27.3101V33.2385H122.208V27.3101C122.208 26.9028 122.536 26.5729 122.94 26.5729C123.344 26.5729 123.672 26.9028 123.672 27.3101V27.3101ZM121.449 27.3101V33.2385H119.984V27.3101C119.984 26.9028 120.312 26.5729 120.716 26.5729C121.12 26.5729 121.449 26.9028 121.449 27.3101V27.3101ZM119.224 27.3101V33.2385H117.761V27.3101C117.761 26.9028 118.088 26.5729 118.492 26.5729C118.897 26.5729 119.224 26.9028 119.224 27.3101V27.3101ZM123.672 3.00193V25.3549H122.913V3L119.929 6.05021V25.3549H117V66H117.761V34.0034H119.224V66H119.984V34.0034H121.449V66H122.208V34.0034H123.672V66H124.432V34.0034H125.896V66H126.656V34.0034H128.12V66H128.88V34.0034H130.344V66H131.104V34.0034H132.568V66H133.018H133.328V25.3549V11.6499H134.792V66H135.552V11.6499H137.016V66H137.776V11.6499H139.24V66H140V3.00193H123.672Z" fill="white"/>
<mask id="mask0_515_1392" style="mask-type:alpha" maskUnits="userSpaceOnUse" x="0" y="2" width="158" height="136">
<path fill-rule="evenodd" clip-rule="evenodd" d="M0 138H158V2H0V138Z" fill="white"/>
</mask>
<g mask="url(#mask0_515_1392)">
<path fill-rule="evenodd" clip-rule="evenodd" d="M83.6141 59.1543H85.0918V18.6687H83.6141V59.1543ZM79.1247 59.1543H80.6024V18.6687H79.1247V59.1543ZM76.8794 59.1543H78.3571V18.6687H76.8794V59.1543ZM74.6353 59.1543H76.113V18.6687H74.6353V59.1543ZM72.39 59.1543H73.8677V18.6687H72.39V59.1543ZM72.39 11.96V11.96V11.9593C72.39 11.5517 72.7208 11.2209 73.1292 11.2209C73.5375 11.2209 73.8677 11.5517 73.8677 11.9593V11.96V17.9025H72.39V11.96ZM74.6353 11.96V11.96V11.9593C74.6353 11.5517 74.9655 11.2209 75.3739 11.2209C75.7822 11.2209 76.113 11.5517 76.113 11.9593V11.96V17.9025H74.6353V11.96ZM76.8794 11.96V11.9593C76.8794 11.5517 77.2108 11.2209 77.6185 11.2209C78.0263 11.2209 78.3577 11.5517 78.3577 11.9593V11.96V17.9025H76.8794V11.96ZM79.1247 11.96V11.9593C79.1247 11.5517 79.4549 11.2209 79.8632 11.2209C80.2716 11.2209 80.6018 11.5517 80.6018 11.9593V11.96V17.9025H79.1247V11.96ZM81.3694 59.155H82.8471V18.6694H81.3694V59.155ZM81.3694 11.96V11.96V11.9593C81.3694 11.5517 81.6996 11.2209 82.1079 11.2209C82.5163 11.2209 82.8471 11.5517 82.8471 11.9593L82.8465 11.96H82.8471V17.9025H81.3694V11.96ZM83.6141 11.96V11.96V11.9593C83.6141 11.5517 83.9449 11.2209 84.3526 11.2209C84.761 11.2209 85.0918 11.5517 85.0918 11.9593V11.96V17.9025H83.6141V11.96ZM85.8588 11.96V11.9593C85.8588 11.5517 86.189 11.2209 86.5973 11.2209C87.0057 11.2209 87.3359 11.5517 87.3359 11.9593V11.96V17.9025H85.8588V11.96ZM85.8581 59.155H87.3359V18.6694H85.8581V59.155ZM112.988 59.155H88.1035V18.6687V18.1067V10H71.6236V18.1067V18.6687V59.155H45.0117V28.3135L42 25.2566V66H44.7306H45.0117H45.0123V60.374H46.7065V66H49.7466V60.374H51.4408V66H54.4809V60.374H56.1751V66H59.2151V60.374H60.9093V66H63.9501V60.374H65.6443V66H68.6844V60.374H70.3785V66H73.4186V60.374H75.1128V66H78.1529V60.374H79.8477V66H82.8878V60.374H84.582V66H87.6221V60.374H89.3163V66H92.3564V60.374H94.0506V66H97.0907V60.374H98.7855V66H101.826V60.374H103.52V66H106.56V60.374H108.254V66H111.294V60.374H112.988V66H113.471H116V25.2566L112.988 28.3135V59.155Z" fill="white"/>
<path fill-rule="evenodd" clip-rule="evenodd" d="M38.0162 27.0987V33.0595H36.5521V27.0987C36.5521 26.6892 36.8799 26.3574 37.2845 26.3574C37.6884 26.3574 38.0162 26.6892 38.0162 27.0987V27.0987ZM38.7761 27.0987V27.0987C38.7761 26.6892 39.1038 26.3574 39.5078 26.3574C39.9124 26.3574 40.2401 26.6892 40.2401 27.0987V33.0595H38.7761V27.0987ZM35.7922 27.0987V33.0595H34.3282V27.0987C34.3282 26.6892 34.6559 26.3574 35.0599 26.3574C35.4645 26.3574 35.7922 26.6892 35.7922 27.0987V27.0987ZM33.5683 18.9666V24.9273H32.1042V18.9666C32.1042 18.5571 32.432 18.2253 32.8359 18.2253C33.2405 18.2253 33.5683 18.5571 33.5683 18.9666V18.9666ZM33.5683 27.0987V33.0595H32.1036V27.0987C32.1036 26.6892 32.432 26.3574 32.8359 26.3574C33.2405 26.3574 33.5683 26.6892 33.5683 27.0987V27.0987ZM31.3443 18.9666V24.9273H29.8803V18.9666C29.8803 18.5571 30.208 18.2253 30.6126 18.2253C31.0166 18.2253 31.3443 18.5571 31.3443 18.9666V18.9666ZM31.3443 27.0987V33.0595H29.8803V27.0987C29.8803 26.6892 30.208 26.3574 30.6126 26.3574C31.0166 26.3574 31.3443 26.6892 31.3443 27.0987V27.0987ZM29.1204 18.9666V24.9273H27.6563V18.9666C27.6563 18.5571 27.9834 18.2253 28.388 18.2253C28.7926 18.2253 29.1204 18.5571 29.1204 18.9666V18.9666ZM29.1204 27.0987V33.0595H27.6563V27.0987C27.6563 26.6892 27.9834 26.3574 28.388 26.3574C28.7926 26.3574 29.1204 26.6892 29.1204 27.0987V27.0987ZM26.8964 18.9666V24.9273H25.4317V18.9666C25.4317 18.5571 25.7601 18.2253 26.1641 18.2253C26.568 18.2253 26.8964 18.5571 26.8964 18.9666V18.9666ZM26.8964 27.0987V33.0595H25.4317V27.0987C25.4317 26.6892 25.7601 26.3574 26.1641 26.3574C26.568 26.3574 26.8964 26.6892 26.8964 27.0987V27.0987ZM24.6725 18.9666V24.9273H23.2084V18.9666C23.2084 18.5571 23.5362 18.2253 23.9401 18.2253C24.3447 18.2253 24.6725 18.5571 24.6725 18.9666V18.9666ZM22.4485 18.9666V24.9273H20.9845V18.9666C20.9845 18.5571 21.3116 18.2253 21.7162 18.2253C22.1208 18.2253 22.4485 18.5571 22.4485 18.9666V18.9666ZM20.2246 18.9666V24.9273H18.7599V18.9666C18.7599 18.5571 19.0883 18.2253 19.4922 18.2253C19.8962 18.2253 20.2246 18.5571 20.2246 18.9666V18.9666ZM38.0712 20.0656L35.0868 17V25.1334H34.3282V17.0013H18V66H18.7599V25.6965H20.2246V66H20.9845V25.6965H22.4485V66H23.2084V25.6965H24.6725V66H24.9823H25.4317V33.8286H26.8964V66H27.6563V33.8286H29.1204V66H29.8803V33.8286H31.3443V66H32.1036V33.8286H33.5683V66H34.3282V33.8286H35.7922V66H36.5521V33.8286H38.0162V66H38.7761V33.8286H40.2401V66H41V25.1334H38.0712V20.0656Z" fill="white"/>
<path fill-rule="evenodd" clip-rule="evenodd" d="M0 109.089L1.78568 107.031C5.83063 110.778 9.5605 112.519 14.9706 112.519C20.4868 112.519 24.2684 109.406 24.2684 105.184V105.078C24.2684 101.172 22.2201 98.9028 13.8681 97.214C5.04261 95.4198 1.47124 92.4114 1.47124 86.8164V86.7111C1.47124 81.2221 6.46144 77 13.2904 77C18.6474 77 22.1677 78.4782 25.8969 81.486L24.1636 83.65C20.6964 80.6416 17.2299 79.4806 13.1849 79.4806C7.77418 79.4806 4.20281 82.595 4.20281 86.4472V86.5531C4.20281 90.4586 6.19813 92.8339 14.9182 94.6281C23.428 96.3696 27 99.4306 27 104.814V104.92C27 110.884 21.9043 115 14.8127 115C8.9297 115 4.41244 113.047 0 109.089" fill="white"/>
<path fill-rule="evenodd" clip-rule="evenodd" d="M113 115H116V78H113V115Z" fill="white"/>
<path fill-rule="evenodd" clip-rule="evenodd" d="M127 78H129.61L155.338 110.225V78.0051H158V115H155.923L129.663 82.0931V115H127V78Z" fill="white"/>
<path fill-rule="evenodd" clip-rule="evenodd" d="M52.8178 78H50.1822L33 115H35.8466L51.4474 80.9916L66.9957 115H70L52.8178 78Z" fill="white"/>
<path fill-rule="evenodd" clip-rule="evenodd" d="M85.1822 115H87.8178L105 78H102.153L86.5526 112.008L71.0044 78H68L85.1822 115Z" fill="white"/>
<path fill-rule="evenodd" clip-rule="evenodd" d="M42 124H52V125.692H43.8149V130.327H51.1118V132.019H43.8149V138H42V124Z" fill="white"/>
<path fill-rule="evenodd" clip-rule="evenodd" d="M70 124H71.9714L76.9902 131.327L82.009 124H84V138H82.0887V127.039L77.0098 134.269H76.9308L71.8721 127.077V138H70V124Z" fill="white"/>
<path fill-rule="evenodd" clip-rule="evenodd" d="M88 138H90V124H88V138Z" fill="white"/>
<path fill-rule="evenodd" clip-rule="evenodd" d="M94 124H95.9277V136.308H104V138H94V124Z" fill="white"/>
<path fill-rule="evenodd" clip-rule="evenodd" d="M109.023 132.461L103 124H105.317L110.01 130.769L114.744 124H117L110.977 132.423V138H109.023V132.461Z" fill="white"/>
<path fill-rule="evenodd" clip-rule="evenodd" d="M60.4139 124H58.6065L52 138H53.9878L59.4697 126.139L64.9523 138H67L60.4139 124Z" fill="white"/>
<path fill-rule="evenodd" clip-rule="evenodd" d="M62.2686 135.002C61.2508 135.315 60.1504 135.486 59.0023 135.486C57.8523 135.486 56.7506 135.314 55.7314 135L55 136.387C56.244 136.781 57.592 137 59.0023 137C60.4107 137 61.7574 136.782 63 136.388L62.2686 135.002Z" fill="white"/>
</g>
</svg>
