<svg width="413" height="220" viewBox="0 0 413 220" fill="none" xmlns="http://www.w3.org/2000/svg">
<path d="M47.3945 169.584V169.303C47.3945 141.575 68.1208 118.606 96.4103 118.606C113.917 118.606 124.421 125.049 134.504 134.291L129.323 139.614C120.779 131.351 110.977 125.189 96.2707 125.189C72.7417 125.189 54.9558 144.374 54.9558 169.024V169.303C54.9558 194.092 73.0227 213.419 96.4103 213.419C110.556 213.419 120.218 207.956 130.162 198.154L135.064 202.915C124.702 213.139 113.496 220.001 96.1312 220.001C68.1208 220.001 47.3945 197.734 47.3945 169.584Z" fill="#ECD9C5"/>
<path d="M156.766 120.287H164.048V218.32H156.766V120.287Z" fill="#ECD9C5"/>
<path d="M220.618 127.009H186.445V120.287H262.072V127.009H227.9V218.32H220.618V127.009Z" fill="#ECD9C5"/>
<path d="M315.429 179.527L273.414 120.287H282.518L319.21 172.945L356.042 120.287H364.726L322.711 179.388V218.32H315.429V179.527Z" fill="#ECD9C5"/>
<path d="M0 84.485L4.72507 79.0661C15.4253 88.931 25.2901 93.5165 39.603 93.5165C54.1929 93.5165 64.1973 85.3184 64.1973 74.2015V73.9243C64.1973 63.6408 58.7784 57.6657 36.6861 53.2197C13.3399 48.4946 3.8917 40.5756 3.8917 25.8461V25.567C3.8917 11.1147 17.092 -0.000267029 35.157 -0.000267029C49.3302 -0.000267029 58.6389 3.88947 68.5057 11.8105L63.9202 17.5085C54.7491 9.58746 45.5781 6.52914 34.8779 6.52914C20.5651 6.52914 11.1169 14.7292 11.1169 24.8712V25.1503C11.1169 35.4319 16.3962 41.6861 39.4634 46.4112C61.9743 50.9967 71.4225 59.0553 71.4225 73.2285V73.5076C71.4225 89.2081 57.945 100.048 39.1863 100.048C23.6234 100.048 11.6712 94.9061 0 84.485Z" fill="#ECD9C5"/>
<path d="M294.16 1.16427H301.385V99.1289H294.16V1.16427Z" fill="#ECD9C5"/>
<path d="M331.25 1.15144H338.059L405.175 86.4858V1.1652H412.123V99.1299H406.704L338.198 11.9912V99.1299H331.25V1.15144Z" fill="#ECD9C5"/>
<path d="M137.003 1.1652H130.055L84.7539 99.1299H92.2582L133.39 9.08618L174.383 99.1299H182.302L137.003 1.1652Z" fill="#ECD9C5"/>
<path d="M221.604 99.1299H228.552L273.853 1.1652H266.348L225.218 91.2109L184.224 1.1652H176.305L221.604 99.1299Z" fill="#ECD9C5"/>
</svg>
