<svg width="281" height="36" viewBox="0 0 281 36" fill="none" xmlns="http://www.w3.org/2000/svg">
<path d="M167.482 18.0994V18.0003C167.482 8.15508 174.841 0 184.885 0C191.101 0 194.83 2.28755 198.41 5.56884L196.571 7.45862C193.537 4.52486 190.057 2.3371 184.835 2.3371C176.482 2.3371 170.167 9.14951 170.167 17.9006V18.0003C170.167 26.8009 176.582 33.6636 184.885 33.6636C189.908 33.6636 193.338 31.7236 196.869 28.2434L198.609 29.9336C194.93 33.5638 190.952 36 184.786 36C174.841 36 167.482 28.0941 167.482 18.0994Z" fill="#AC7644"/>
<path d="M206.316 0.597614H208.902V35.4043H206.316V0.597614Z" fill="#AC7644"/>
<path d="M228.99 2.98426H216.857V0.597618H243.709V2.98426H231.576V35.4043H228.99V2.98426Z" fill="#AC7644"/>
<path d="M262.652 21.6308L247.734 0.597618H250.967L263.994 19.2937L277.071 0.597618H280.154L265.237 21.5813V35.4043H262.652V21.6308Z" fill="#AC7644"/>
<path d="M0 30.1834L1.67763 28.2594C5.47673 31.7619 8.97924 33.39 14.061 33.39C19.2411 33.39 22.7932 30.4793 22.7932 26.533V26.4339C22.7932 22.7834 20.8692 20.6612 13.0247 19.0827C4.73631 17.4051 1.38105 14.5934 1.38105 9.36374V9.26464C1.38105 4.13405 6.06851 0.187008 12.4824 0.187008C17.5139 0.187008 20.8197 1.56876 24.3229 4.38039L22.6948 6.40346C19.4386 3.59112 16.1825 2.50597 12.3834 2.50597C7.30161 2.50597 3.94704 5.4167 3.94704 9.0183V9.1174C3.94704 12.7679 5.82147 14.9877 14.0114 16.6653C22.0039 18.2934 25.3585 21.1546 25.3585 26.1868V26.2859C25.3585 31.861 20.5726 35.709 13.913 35.709C8.38746 35.709 4.14384 33.8834 0 30.1834Z" fill="#395542"/>
<path d="M104.441 0.601551H107.007V35.3838H104.441V0.601551Z" fill="#395542"/>
<path d="M117.611 0.596649H120.029L143.858 30.8945V0.601532H146.325V35.3838H144.401L120.078 4.4446V35.3838H117.611V0.596649Z" fill="#395542"/>
<path d="M48.6447 0.60154H46.1778L30.0938 35.3838H32.7581L47.3621 3.41387L61.9164 35.3838H64.7281L48.6447 0.60154Z" fill="#395542"/>
<path d="M78.681 35.3838H81.1479L97.232 0.60154H94.5676L79.9637 32.5715L65.4093 0.60154H62.5977L78.681 35.3838Z" fill="#395542"/>
</svg>
